<svg width="18" height="18" fill="none" xmlns="http://www.w3.org/2000/svg"><path fill-rule="evenodd" clip-rule="evenodd" d="M7.458 2.438h3.084c1.379 0 2.47 0 3.325.114.88.119 1.59.368 2.152.929.561.561.81 1.273.929 2.152.114.855.114 1.946.114 3.325v.084c0 1.379 0 2.47-.114 3.325-.119.88-.368 1.59-.929 2.152-.561.561-1.273.81-2.152.929-.855.114-1.946.114-3.325.114H7.458c-1.379 0-2.47 0-3.325-.114-.88-.119-1.59-.368-2.152-.929-.561-.561-.81-1.273-.929-2.152-.115-.855-.115-1.946-.115-3.325v-.084c0-1.379 0-2.47.115-3.325.119-.88.368-1.59.929-2.152.561-.561 1.273-.81 2.152-.929.855-.115 1.946-.115 3.325-.115Zm-3.175 1.23c-.754.1-1.19.291-1.507.608-.317.318-.507.753-.609 1.507-.103.77-.104 1.787-.104 3.217 0 1.43 0 2.446.104 3.217.102.754.292 1.19.61 1.507.317.317.752.507 1.506.609.77.103 1.787.104 3.217.104h3c1.43 0 2.446 0 3.217-.104.754-.102 1.19-.292 1.507-.61.317-.317.507-.752.609-1.506.103-.77.104-1.787.104-3.217 0-1.43 0-2.446-.104-3.217-.102-.754-.292-1.19-.61-1.507-.317-.317-.752-.507-1.506-.609-.77-.103-1.787-.104-3.217-.104h-3c-1.43 0-2.446 0-3.217.104ZM4.068 5.64a.562.562 0 0 1 .792-.072l1.62 1.35c.699.582 1.185.986 1.595 1.25.397.255.666.34.925.34s.528-.085.925-.34c.41-.264.896-.668 1.596-1.25l1.619-1.35a.562.562 0 1 1 .72.864l-1.647 1.373c-.665.554-1.204 1.003-1.68 1.309-.495.318-.977.52-1.533.52-.556 0-1.038-.202-1.534-.52-.475-.306-1.014-.755-1.679-1.31L4.14 6.433a.562.562 0 0 1-.072-.792Z" fill="#fff"/></svg>
