<svg width="18" height="18" viewBox="0 0 18 18" fill="none" xmlns="http://www.w3.org/2000/svg">
<g clip-path="url(#clip0_3455_560)">
<path fill-rule="evenodd" clip-rule="evenodd" d="M8.95697 0.9375C7.22568 0.937491 5.86889 0.937484 4.81028 1.07981C3.72673 1.22549 2.87171 1.5295 2.2006 2.2006C1.5295 2.87171 1.22549 3.72673 1.07981 4.81028C0.937484 5.86889 0.937491 7.22567 0.9375 8.95695V9.04303C0.937491 10.7743 0.937484 12.1311 1.07981 13.1897C1.22549 14.2733 1.5295 15.1283 2.2006 15.7994C2.87171 16.4705 3.72673 16.7745 4.81028 16.9202C5.8689 17.0625 7.22567 17.0625 8.95697 17.0625H9.04303C10.7743 17.0625 12.1311 17.0625 13.1897 16.9202C14.2733 16.7745 15.1283 16.4705 15.7994 15.7994C16.4705 15.1283 16.7745 14.2733 16.9202 13.1897C17.0625 12.1311 17.0625 10.7743 17.0625 9.04303V8.95697C17.0625 7.22567 17.0625 5.8689 16.9202 4.81028C16.7745 3.72673 16.4705 2.87171 15.7994 2.2006C15.1283 1.5295 14.2733 1.22549 13.1897 1.07981C12.1311 0.937484 10.7743 0.937491 9.04305 0.9375H8.95697ZM8.4375 2.06271C6.94221 2.06429 5.82949 2.0779 4.96018 2.19478C4.00138 2.32369 3.42334 2.56886 2.9961 2.9961C2.56886 3.42334 2.32369 4.00138 2.19478 4.96018C2.0779 5.82949 2.06429 6.94221 2.06271 8.4375H5.18532C4.92209 8.1087 4.72541 7.72088 4.61817 7.29189C4.21448 5.67713 5.67713 4.21448 7.29189 4.61817C7.72088 4.72541 8.1087 4.92209 8.4375 5.18532V2.06271ZM2.06271 9.5625C2.06429 11.0578 2.0779 12.1705 2.19478 13.0398C2.32369 13.9986 2.56886 14.5767 2.9961 15.0039C3.42334 15.4311 4.00138 15.6763 4.96018 15.8052C5.82949 15.9221 6.94221 15.9357 8.4375 15.9373V10.5927C7.85277 11.7607 6.64502 12.5625 5.25 12.5625C4.93934 12.5625 4.6875 12.3107 4.6875 12C4.6875 11.6893 4.93934 11.4375 5.25 11.4375C6.40259 11.4375 7.36833 10.6375 7.62227 9.56251H7.52632L7.51941 9.5625H2.06271ZM9.5625 15.9373C11.0578 15.9357 12.1705 15.9221 13.0398 15.8052C13.9986 15.6763 14.5767 15.4311 15.0039 15.0039C15.4311 14.5767 15.6763 13.9986 15.8052 13.0398C15.9221 12.1705 15.9357 11.0578 15.9373 9.5625H10.4806L10.4737 9.56251H10.3777C10.6317 10.6375 11.5974 11.4375 12.75 11.4375C13.0607 11.4375 13.3125 11.6893 13.3125 12C13.3125 12.3107 13.0607 12.5625 12.75 12.5625C11.355 12.5625 10.1472 11.7607 9.5625 10.5927V15.9373ZM15.9373 8.4375H12.8147C13.0779 8.1087 13.2746 7.72088 13.3818 7.29189C13.7855 5.67713 12.3229 4.21448 10.7081 4.61817C10.2791 4.72541 9.8913 4.9221 9.5625 5.18532V2.06271C11.0578 2.06429 12.1705 2.0779 13.0398 2.19478C13.9986 2.32369 14.5767 2.56886 15.0039 2.9961C15.4311 3.42334 15.6763 4.00138 15.8052 4.96018C15.9221 5.82949 15.9357 6.94221 15.9373 8.4375ZM9.56251 8.4375L9.5625 7.52184C9.56453 6.66442 10.1488 5.91763 10.981 5.70958C11.7718 5.51187 12.4881 6.22821 12.2904 7.01904C12.0825 7.85092 11.3362 8.43503 10.4791 8.4375H9.56251ZM8.4375 7.52062C8.43492 6.66371 7.85084 5.91753 7.01904 5.70958C6.22821 5.51187 5.51187 6.22821 5.70958 7.01904C5.91755 7.85092 6.66385 8.43503 7.52086 8.4375H8.4375V7.52062Z" fill="white"/>
</g>
<defs>
<clipPath id="clip0_3455_560">
<rect width="18" height="18" fill="white"/>
</clipPath>
</defs>
</svg>
