<svg width="18" height="18" fill="none" xmlns="http://www.w3.org/2000/svg"><g clip-path="url(#a)"><path fill-rule="evenodd" clip-rule="evenodd" d="M3.938 6.977V6a5.063 5.063 0 0 1 10.124 0v.977c.17.012.331.028.482.048.675.09 1.243.285 1.695.736.451.452.645 1.02.736 1.695.087.65.087 1.477.087 2.503v.082c0 1.026 0 1.853-.087 2.503-.09.675-.285 1.243-.736 1.695-.452.451-1.02.645-1.695.736-.65.087-1.477.087-2.503.087H5.96c-1.026 0-1.853 0-2.503-.087-.675-.09-1.243-.285-1.695-.736-.451-.452-.645-1.02-.736-1.695-.088-.65-.088-1.477-.087-2.503v-.082c0-1.026 0-1.853.087-2.503.09-.675.285-1.243.736-1.695.452-.451 1.02-.645 1.695-.736.151-.02.311-.036.482-.048ZM5.062 6a3.938 3.938 0 0 1 7.875 0v.94c-.28-.003-.578-.003-.896-.003H5.96c-.318 0-.616 0-.896.003V6ZM2.558 8.557c.207-.208.499-.343 1.05-.417.566-.076 1.316-.078 2.393-.078h6c1.077 0 1.827.002 2.394.078.55.074.842.21 1.05.417.207.207.342.499.416 1.05.076.566.078 1.316.078 2.393 0 1.077-.002 1.827-.078 2.394-.074.55-.21.842-.417 1.05-.207.207-.499.342-1.05.416-.566.076-1.316.078-2.393.078H6c-1.077 0-1.827-.002-2.394-.078-.55-.074-.842-.21-1.05-.417-.207-.207-.342-.499-.416-1.05-.076-.566-.078-1.316-.078-2.393 0-1.077.002-1.827.078-2.394.074-.55.21-.842.417-1.05Z" fill="#fff"/></g><defs><clipPath id="a"><path fill="#fff" d="M0 0h18v18H0z"/></clipPath></defs></svg>
