<svg width="1053" height="226" fill="none" xmlns="http://www.w3.org/2000/svg"><path d="m89.136 194.432-55.084 30.834 12.3-61.918L0 120.486l62.691-7.435 26.445-57.325 26.445 57.325 62.691 7.435-46.353 42.862 12.301 61.918-55.084-30.834ZM307.816 170.549l-55.084 30.834 12.301-61.918-46.352-42.862 62.691-7.435 26.444-57.325 26.445 57.325 62.691 7.435-46.352 42.862 12.301 61.918-55.085-30.834ZM526.497 138.706l-55.084 30.834 12.301-61.918-46.353-42.861 62.691-7.435L526.497 0l26.445 57.326 62.691 7.435-46.353 42.861 12.301 61.918-55.084-30.834ZM745.178 170.549l-55.084 30.834 12.3-61.918-46.352-42.862 62.691-7.435 26.445-57.325 26.444 57.325 62.692 7.435-46.353 42.862 12.301 61.918-55.084-30.834ZM963.857 194.432l-55.084 30.834 12.301-61.918-46.352-42.862 62.691-7.435 26.444-57.325 26.445 57.325 62.688 7.435-46.35 42.862 12.3 61.918-55.083-30.834Z" fill="#161C22"/></svg>