<svg width="160" height="28" fill="none" xmlns="http://www.w3.org/2000/svg"><path d="M14 21.303 5.77 25.909l1.838-9.25-6.924-6.402 9.364-1.11L14 .582l3.951 8.563 9.365 1.111-6.924 6.403 1.837 9.249L14 21.303ZM47 21.303l-8.229 4.606 1.838-9.25-6.924-6.402 9.364-1.11L47 .582l3.951 8.563 9.365 1.111-6.924 6.403 1.837 9.249L47 21.303ZM79.5 21.303l-8.523 4.606 1.903-9.25-7.171-6.402 9.7-1.11 4.09-8.564 4.092 8.563 9.7 1.111-7.172 6.403 1.903 9.249-8.522-4.606ZM113 21.303l-8.229 4.606 1.838-9.25-6.924-6.402 9.364-1.11L113 .582l3.95 8.563 9.365 1.111-6.924 6.403 1.837 9.249L113 21.303ZM146 21.303l-8.229 4.606 1.838-9.25-6.924-6.402 9.364-1.11L146 .582l3.95 8.563 9.365 1.111-6.924 6.403 1.837 9.249L146 21.303Z" fill="#94F64E"/></svg>