<svg width="18" height="18" fill="none" xmlns="http://www.w3.org/2000/svg"><path fill-rule="evenodd" clip-rule="evenodd" d="M9 .938a3.563 3.563 0 1 0 0 7.125A3.563 3.563 0 0 0 9 .937ZM6.562 4.5a2.438 2.438 0 1 1 4.876 0 2.438 2.438 0 0 1-4.876 0ZM9 9.188c-1.53 0-2.942.353-3.991.952-1.034.59-1.822 1.493-1.822 2.61 0 1.117.788 2.02 1.822 2.61 1.05.6 2.462.953 3.991.953 1.53 0 2.942-.354 3.991-.953 1.034-.59 1.822-1.493 1.822-2.61 0-1.117-.788-2.02-1.822-2.61-1.05-.6-2.461-.953-3.991-.953ZM4.312 12.75c0-.54.388-1.138 1.255-1.633.85-.486 2.063-.805 3.433-.805 1.37 0 2.583.319 3.433.805.867.495 1.255 1.093 1.255 1.633s-.388 1.138-1.255 1.633c-.85.486-2.063.805-3.433.805-1.37 0-2.583-.319-3.433-.805-.867-.495-1.255-1.093-1.255-1.633Z" fill="#fff"/></svg>
