<svg xmlns="http://www.w3.org/2000/svg" width="292" height="28" fill="none"><path stroke="#99FF50" stroke-linecap="round" stroke-width="3" d="M2.336 14.382c27.71-1.066 55.374-2.028 83.11-2.641 25.443-.562 50.836-2.005 76.264-2.983 21.76-.837 43.523-1.086 65.26-2.519 15.375-1.013 30.72-2.408 46.091-3.472 5.002-.346 10.011-.23 15.013-.611 1.477-.113 2.739-.305.465.196-19.691 4.332-39.927 6.463-59.931 8.704-34.303 3.844-68.588 7.37-102.793 12.03-7.233.986-14.526 1.813-21.737 2.934-1.216.19-1.108.275-.049.22 5.248-.269 10.492-.341 15.747-.464 32.552-.76 65.099-2.447 97.585-4.597 18.205-1.205 36.504-3.276 54.771-3.276"/></svg>