<svg xmlns="http://www.w3.org/2000/svg" width="30" height="30" fill="none"><path stroke="#fff" stroke-width="1.5" d="M15 2.5C8.096 2.5 2.5 8.096 2.5 15c0 .556.036 1.103.107 1.64.66 5.036 4.317 9.128 9.121 10.427 1.043.282 2.14.433 3.272.433 6.098 0 11.177-4.367 12.278-10.144.146-.763.222-1.55.222-2.356 0-3.908-1.794-7.398-4.603-9.69A12.448 12.448 0 0 0 15 2.5Z"/><path stroke="#fff" stroke-width="1.5" d="M19 12.5a5.5 5.5 0 1 1-11 0 5.5 5.5 0 0 1 11 0Z"/><path stroke="#fff" stroke-linecap="round" stroke-width="1.5" d="m13.2 10.4 1.733.694a.5.5 0 0 1 .14.844L12.198 14.4"/></svg>