<svg xmlns="http://www.w3.org/2000/svg" width="31" height="30" fill="none"><path stroke="#fff" stroke-linecap="round" stroke-width="1.5" d="M7.5 22v2.5A1.5 1.5 0 0 0 9 26h13a1.5 1.5 0 0 0 1.5-1.5V22M23.5 8V5.5A1.5 1.5 0 0 0 22 4H9a1.5 1.5 0 0 0-1.5 1.5V8M3.5 12v6c0 1.4 0 2.1.272 2.635a2.5 2.5 0 0 0 1.093 1.092C5.4 22 6.1 22 7.5 22h16c1.4 0 2.1 0 2.635-.273a2.5 2.5 0 0 0 1.092-1.092C27.5 20.1 27.5 19.4 27.5 18v-6c0-1.4 0-2.1-.273-2.635a2.5 2.5 0 0 0-1.092-1.093C25.6 8 24.9 8 23.5 8h-16c-1.4 0-2.1 0-2.635.272a2.5 2.5 0 0 0-1.093 1.093C3.5 9.9 3.5 10.6 3.5 12Z"/><path stroke="#fff" stroke-linecap="round" stroke-width="1.5" d="M8.5 13h2.191a.5.5 0 0 1 .447.724L9.5 17M13.5 13h2.191a.5.5 0 0 1 .447.724L14.5 17M18.5 13h2.191a.5.5 0 0 1 .447.724L19.5 17"/></svg>