<svg xmlns="http://www.w3.org/2000/svg" width="31" height="30" fill="none"><path fill="#fff" fill-rule="evenodd" d="M15.501 3.438a7.812 7.812 0 1 0 0 15.624 7.812 7.812 0 0 0 0-15.625ZM5.813 11.25c0-5.35 4.338-9.688 9.688-9.688 5.35 0 9.688 4.338 9.688 9.688a9.67 9.67 0 0 1-.594 3.347l2.859 2.96c.322.333.59.61.79.841.197.228.4.489.518.791.417 1.056.082 2.306-.923 2.921-.29.177-.619.25-.902.298-.289.048-.657.087-1.09.133l-.03.003c-.574.061-.683.08-.757.109a.853.853 0 0 0-.496.52c-.032.09-.051.217-.11.806l-.002.028c-.045.451-.082.83-.128 1.126-.046.29-.114.618-.28.907-.586 1.027-1.823 1.413-2.895.959-.302-.128-.558-.342-.776-.544-.224-.208-.492-.485-.813-.818l-.025-.026-4.034-4.25-4.04 4.256-.019.02c-.321.333-.59.61-.813.818-.218.202-.474.416-.776.544-1.072.454-2.31.069-2.896-.959-.165-.289-.234-.618-.279-.907-.046-.297-.083-.675-.128-1.126l-.003-.028c-.058-.59-.077-.717-.11-.806a.854.854 0 0 0-.495-.52c-.074-.029-.183-.048-.757-.109l-.03-.003a19.76 19.76 0 0 1-1.09-.133c-.284-.047-.613-.12-.902-.298-1.005-.615-1.34-1.865-.924-2.92.12-.303.322-.564.52-.792.2-.23.467-.508.789-.841l2.859-2.96a9.669 9.669 0 0 1-.594-3.347Zm1.472 5.136-2.37 2.454c-.345.357-.577.598-.74.786a1.519 1.519 0 0 0-.191.251c-.113.286-.001.529.148.628.01.003.074.026.242.054.227.038.537.07 1.008.12l.094.01c.424.045.802.084 1.137.213a2.728 2.728 0 0 1 1.59 1.64c.12.337.158.716.201 1.159l.01.094c.047.486.08.811.117 1.049.032.203.057.269.058.273.1.168.305.25.531.156 0 0 .063-.034.234-.192a22.4 22.4 0 0 0 .756-.763l.002-.003 3.4-3.582a9.698 9.698 0 0 1-6.227-4.347Zm10.205 4.347a9.699 9.699 0 0 0 6.227-4.347l2.37 2.454c.345.357.577.598.74.786.152.176.188.244.191.251.113.286.001.529-.148.628-.01.003-.075.026-.242.054a19.2 19.2 0 0 1-1.008.12l-.094.01c-.424.045-.802.084-1.137.213a2.728 2.728 0 0 0-1.59 1.64c-.12.337-.158.716-.201 1.159l-.01.094c-.047.486-.08.811-.117 1.049-.032.203-.057.269-.058.273-.1.168-.306.251-.534.155l.003.001s-.063-.034-.234-.192c-.18-.168-.412-.407-.756-.763l-.002-.003-3.4-3.582ZM15.5 8.793c-.073.126-.153.27-.249.442l-.123.22a5.076 5.076 0 0 0-.027.05c-.099.18-.261.478-.532.683-.277.21-.61.283-.805.325l-.054.012-.238.054c-.22.05-.398.09-.55.128.099.122.228.274.396.47l.162.19.038.043c.135.156.352.407.453.73.1.32.065.65.044.858l-.006.059-.025.254c-.023.235-.04.423-.052.576.13-.058.278-.126.454-.207l.224-.103.05-.023c.18-.085.492-.232.84-.232s.66.147.84.232l.05.023.224.103c.176.081.324.15.454.207-.012-.153-.03-.34-.052-.576l-.025-.254-.006-.059c-.021-.207-.056-.537.044-.857.1-.324.318-.575.453-.73l.038-.044.162-.19c.168-.196.297-.348.396-.47a25.2 25.2 0 0 0-.55-.128l-.238-.054a6.539 6.539 0 0 0-.055-.012c-.194-.042-.527-.114-.804-.325-.27-.205-.433-.503-.531-.682l-.028-.05-.123-.221c-.096-.171-.176-.316-.249-.442ZM14.268 7.25c.215-.281.606-.688 1.233-.688.627 0 1.018.407 1.233.688.205.268.412.64.624 1.02l.03.052.122.22.07.126.124.028.239.054.059.013c.41.093.817.185 1.13.308.344.136.812.401.993.981.177.57-.047 1.052-.242 1.362-.18.287-.455.608-.736.937l-.039.044-.162.19-.103.122.015.17.025.253.006.058c.042.44.084.865.069 1.205-.016.357-.102.896-.586 1.264-.5.379-1.05.296-1.4.196-.322-.092-.703-.268-1.086-.444l-.055-.026-.224-.103a14.2 14.2 0 0 0-.106-.048l-.106.048-.224.103-.055.026c-.383.176-.764.352-1.086.444-.35.1-.9.183-1.4-.196-.484-.368-.57-.907-.586-1.264-.015-.34.026-.765.07-1.205l.005-.058.024-.254.016-.169-.103-.121-.162-.19-.039-.045c-.28-.329-.555-.65-.736-.937-.195-.31-.419-.792-.242-1.362.18-.58.648-.845.994-.98.312-.124.72-.216 1.13-.309l.058-.013.239-.054.123-.028.07-.126.123-.22.03-.052c.212-.38.418-.752.624-1.02Z" clip-rule="evenodd"/></svg>