<svg xmlns="http://www.w3.org/2000/svg" width="31" height="30" fill="none"><path stroke="#fff" stroke-width="1.5" d="m25.89 15.81.647-2.416c.755-2.819 1.133-4.228.848-5.448a5 5 0 0 0-1.451-2.514C25.02 4.576 23.61 4.2 20.79 3.443c-2.819-.755-4.228-1.133-5.448-.848a5 5 0 0 0-2.514 1.451c-.733.783-1.115 1.928-1.684 4.011l-.305 1.131-.647 2.415c-.755 2.82-1.133 4.229-.848 5.448a5 5 0 0 0 1.451 2.514c.914.856 2.324 1.234 5.142 1.99 2.541.68 3.937 1.054 5.08.913.126-.015.248-.037.369-.065a5 5 0 0 0 2.513-1.451c.857-.915 1.234-2.324 1.99-5.143Z"/><path stroke="#fff" stroke-width="1.5" d="M21.019 22.468a5 5 0 0 1-1.335 2.097c-.914.856-2.324 1.234-5.143 1.989-2.819.755-4.228 1.133-5.448.849A5 5 0 0 1 6.58 25.95c-.856-.914-1.233-2.323-1.989-5.142l-.647-2.415c-.755-2.819-1.133-4.228-.848-5.448a5 5 0 0 1 1.451-2.514c.914-.856 2.324-1.234 5.142-1.99.534-.142 1.017-.271 1.457-.385"/></svg>