<svg xmlns="http://www.w3.org/2000/svg" width="30" height="30" fill="none"><path fill="#fff" d="m11.497 14.948.717-.221-.717.22Zm.435-1.363-.456-.595.456.595Zm.467 4.284-.717.221.717-.22Zm5.173 0-.716-.221.716.221Zm.467-4.284-.456.596.456-.596Zm.435 1.363.717.221-.717-.221Zm-2.73-3.118.455-.596-.456.596Zm-1.516 0 .455.595-.455-.595ZM25.23 22a.75.75 0 0 0 0-1.5V22Zm-6.757 2.669-.712-.237.712.237Zm-1.446 1.97a.75.75 0 1 0 1.423.473l-1.423-.474ZM4.998 20.5a.75.75 0 0 0 0 1.5v-1.5Zm6.756 4.169.712-.237-.712.237Zm.023 2.443a.75.75 0 0 0 1.423-.474l-1.423.474Zm-1.501-5.39-.439.608.439-.608ZM6.764 6.872a.75.75 0 1 0-1.45.389l1.45-.388ZM6.562 9.02l-.725.194.725-.194ZM4.49 14.486l-.414-.626.414.626Zm-2.352.655a.75.75 0 1 0 .827 1.252l-.827-1.252Zm22.598-7.88a.75.75 0 1 0-1.449-.388l1.45.388ZM23.49 9.019l-.724-.194.724.194Zm2.073 5.467-.414.625.414-.625Zm1.524 1.907a.75.75 0 0 0 .828-1.252l-.828 1.252Zm-7.081-11.75a.75.75 0 0 0-.865-1.227l.865 1.226Zm-2.083.55.432.613-.432-.613Zm-5.84-.063-.445.603.445-.603Zm-1.424-1.983a.75.75 0 0 0-.891 1.206l.89-1.206Zm7.816 11.063-.716.22.716-.22Zm-6.977 0 .717.22-.717-.22Zm15.224.79c0 6.49-5.255 11.75-11.735 11.75v1.5c7.31 0 13.235-5.933 13.235-13.25h-1.5ZM14.986 26.75C8.505 26.75 3.25 21.49 3.25 15h-1.5c0 7.317 5.925 13.25 13.236 13.25v-1.5ZM3.25 15c0-6.49 5.255-11.75 11.736-11.75v-1.5C7.675 1.75 1.75 7.683 1.75 15h1.5ZM14.986 3.25c6.48 0 11.735 5.26 11.735 11.75h1.5c0-7.317-5.925-13.25-13.235-13.25v1.5Zm.302 9.175 2.296 1.756.91-1.191-2.295-1.756-.911 1.191Zm2.47 2.302-.902 2.92 1.433.443.902-2.921-1.433-.442ZM16.38 18h-2.788v1.5h2.787V18Zm-3.265-.352-.901-2.921-1.434.442.902 2.921 1.433-.442Zm-.727-3.467 2.295-1.756-.911-1.191-2.296 1.756.912 1.191ZM25.23 20.5h-2.019V22h2.019v-1.5Zm-7.469 3.932-.734 2.206 1.423.474.735-2.206-1.424-.474Zm5.45-3.932c-.851 0-1.553-.001-2.121.064-.588.067-1.109.211-1.578.55l.878 1.216c.185-.133.426-.225.87-.276.464-.053 1.065-.054 1.951-.054v-1.5Zm-4.026 4.406c.28-.842.471-1.413.668-1.836.189-.407.352-.606.537-.74l-.878-1.216c-.469.338-.77.787-1.02 1.323-.24.52-.461 1.186-.73 1.995l1.423.474ZM4.997 22h2.019v-1.5H4.997V22Zm6.045 2.906.735 2.206 1.423-.474-.734-2.206-1.424.474ZM7.016 22c.886 0 1.487.001 1.951.054.444.05.685.143.87.276l.878-1.216c-.47-.339-.99-.483-1.578-.55-.568-.065-1.27-.064-2.121-.064V22Zm5.45 2.432c-.27-.809-.49-1.475-.732-1.994-.25-.537-.55-.986-1.02-1.324l-.877 1.216c.185.134.348.333.537.74.197.423.388.994.668 1.836l1.424-.474ZM5.315 7.26l.522 1.952 1.45-.388-.523-1.952-1.45.388ZM4.076 13.86l-1.938 1.281.827 1.252 1.938-1.282-.827-1.251Zm1.761-4.647c.23.857.384 1.439.453 1.9.066.444.04.701-.041.915l1.403.531c.205-.54.209-1.08.122-1.666-.085-.567-.267-1.245-.488-2.068l-1.449.388Zm-.934 5.898c.71-.47 1.297-.855 1.735-1.223.454-.38.809-.788 1.014-1.329l-1.403-.531c-.081.213-.231.423-.575.71-.357.3-.859.633-1.598 1.122l.827 1.251Zm18.384-8.238-.522 1.952 1.449.388.522-1.952-1.449-.388Zm1.861 8.238 1.938 1.282.828-1.252-1.939-1.28-.827 1.25Zm-2.383-6.286c-.22.824-.403 1.502-.488 2.068-.087.585-.082 1.126.123 1.666l1.402-.531c-.08-.214-.107-.47-.041-.914.069-.462.224-1.044.453-1.901l-1.45-.388Zm3.21 5.035c-.74-.489-1.24-.821-1.598-1.121-.343-.288-.494-.497-.575-.711l-1.402.531c.205.541.56.949 1.013 1.329.439.368 1.024.754 1.735 1.223l.827-1.25ZM19.14 3.416 17.49 4.58l.864 1.226 1.65-1.164-.864-1.226Zm-6.613 1.11-1.87-1.38-.89 1.207 1.87 1.38.89-1.206Zm4.963.054c-.724.511-1.217.857-1.626 1.081-.393.215-.643.279-.87.276l-.017 1.5c.579.006 1.087-.176 1.606-.46.503-.275 1.075-.68 1.771-1.17L17.49 4.58Zm-5.853 1.153c.685.506 1.249.924 1.745 1.21.513.294 1.017.488 1.595.494l.017-1.5c-.228-.002-.476-.072-.864-.295-.405-.233-.89-.589-1.603-1.115l-.89 1.206Zm5.947 8.448a.499.499 0 0 1 .174.25l1.433-.442a1.999 1.999 0 0 0-.696-1l-.912 1.192Zm.174.25c.029.094.03.197 0 .296l1.433.442a1.999 1.999 0 0 0 0-1.18l-1.433.442Zm5.056-2.83-4.627 1.916.574 1.386 4.627-1.916-.574-1.386Zm-6.615-.367a1.995 1.995 0 0 0-1.213-.411v1.5c.106 0 .212.034.302.102l.911-1.191Zm-1.213-.411c-.428 0-.856.137-1.214.411l.911 1.191a.496.496 0 0 1 .303-.102v-1.5Zm.75.75V6.687h-1.5v4.886h1.5Zm1.12 6.075c-.031.1-.09.184-.169.245l.928 1.179c.312-.245.551-.584.674-.982l-1.433-.442Zm-.169.245a.496.496 0 0 1-.308.107v1.5c.46 0 .893-.158 1.236-.428l-.927-1.179Zm3.832 3.338-2.8-3.24-1.135.982 2.8 3.24 1.136-.982ZM13.593 18a.496.496 0 0 1-.308-.107l-.928 1.179c.343.27.775.428 1.236.428V18Zm-.308-.107a.499.499 0 0 1-.169-.245l-1.433.442c.123.398.362.737.674.982l.928-1.179Zm-2.418 4.292 2.543-3.24-1.18-.926-2.543 3.24 1.18.926Zm1.348-7.458a.5.5 0 0 1 0-.296l-1.434-.442a2 2 0 0 0 0 1.18l1.434-.442Zm0-.296a.498.498 0 0 1 .174-.25l-.912-1.191a2 2 0 0 0-.696.998l1.434.443Zm-.426-.912-4.546-1.917-.583 1.383 4.547 1.916.582-1.382Z"/></svg>