<svg width="85" height="30" viewBox="0 0 85 30" fill="none" xmlns="http://www.w3.org/2000/svg"><path fill-rule="evenodd" clip-rule="evenodd" d="M3 6C4.65685 6 6 4.65685 6 3C6 1.34315 4.65685 0 3 0C1.34315 0 0 1.34315 0 3C0 4.65685 1.34315 6 3 6ZM3 18C4.65685 18 6 16.6569 6 15C6 13.3431 4.65685 12 3 12C1.34315 12 0 13.3431 0 15C0 16.6569 1.34315 18 3 18ZM6 27C6 28.6569 4.65685 30 3 30C1.34315 30 0 28.6569 0 27C0 25.3431 1.34315 24 3 24C4.65685 24 6 25.3431 6 27ZM13 0C11.3431 0 10 1.34315 10 3C10 4.65685 11.3431 6 13 6H82C83.6569 6 85 4.65685 85 3C85 1.34315 83.6569 0 82 0H13ZM10 15C10 13.3431 11.3431 12 13 12H82C83.6569 12 85 13.3431 85 15C85 16.6569 83.6569 18 82 18H13C11.3431 18 10 16.6569 10 15ZM13 24C11.3431 24 10 25.3431 10 27C10 28.6569 11.3431 30 13 30H82C83.6569 30 85 28.6569 85 27C85 25.3431 83.6569 24 82 24H13Z" fill="#99FF50"/></svg>