<svg width="97" height="75" viewBox="0 0 97 75" fill="none" xmlns="http://www.w3.org/2000/svg">
<path d="M17.6713 40.24C16.4393 40.24 15.3193 40.024 14.3113 39.592C13.3033 39.144 12.4313 38.528 11.6953 37.744C10.9593 36.944 10.3913 36.024 9.9913 34.984C9.6073 33.928 9.4153 32.8 9.4153 31.6C9.4153 30.4 9.6073 29.28 9.9913 28.24C10.3913 27.184 10.9593 26.264 11.6953 25.48C12.4313 24.696 13.3033 24.08 14.3113 23.632C15.3193 23.184 16.4393 22.96 17.6713 22.96C18.9353 22.96 20.0233 23.184 20.9353 23.632C21.8633 24.08 22.7113 24.688 23.4793 25.456L21.6073 27.328C21.1113 26.752 20.5353 26.312 19.8793 26.008C19.2233 25.688 18.4473 25.528 17.5513 25.528C16.4633 25.528 15.5113 25.784 14.6953 26.296C13.8953 26.808 13.2713 27.52 12.8233 28.432C12.3913 29.344 12.1753 30.4 12.1753 31.6C12.1753 32.8 12.3993 33.856 12.8473 34.768C13.2953 35.68 13.9273 36.392 14.7433 36.904C15.5753 37.416 16.5673 37.672 17.7193 37.672C18.5993 37.672 19.3593 37.512 19.9993 37.192C20.6553 36.872 21.2313 36.424 21.7273 35.848L23.5993 37.72C22.8313 38.504 21.9593 39.12 20.9833 39.568C20.0073 40.016 18.9033 40.24 17.6713 40.24ZM7.8073 30.568V28.408H19.3513L18.6553 30.568H7.8073ZM7.8073 34.768V32.608H18.3673L17.6713 34.768H7.8073ZM30.3654 37.552L39.6534 27.688C40.4214 26.872 41.0454 26.14 41.5254 25.492C42.0054 24.844 42.3534 24.232 42.5694 23.656C42.7854 23.08 42.8934 22.492 42.8934 21.892C42.8934 20.764 42.5214 19.888 41.7774 19.264C41.0574 18.616 40.1334 18.292 39.0054 18.292C37.8054 18.292 36.7494 18.592 35.8374 19.192C34.9254 19.792 34.1094 20.728 33.3894 22L30.5094 19.624C31.4934 17.92 32.7054 16.636 34.1454 15.772C35.5854 14.884 37.2534 14.44 39.1494 14.44C40.7094 14.44 42.0774 14.752 43.2534 15.376C44.4294 16 45.3414 16.876 45.9894 18.004C46.6374 19.108 46.9614 20.392 46.9614 21.856C46.9614 22.912 46.8294 23.86 46.5654 24.7C46.3254 25.516 45.9054 26.344 45.3054 27.184C44.7054 28 43.8774 28.96 42.8214 30.064L35.6934 37.444L30.3654 37.552ZM30.3654 40V37.552L33.9294 36.292H47.4654V40H30.3654ZM49.842 31L58.806 14.8H63.486L54.306 31H49.842ZM49.842 33.52V31L51.606 29.812H69.39V33.52H49.842ZM61.794 40V23.512H65.862V40H61.794ZM74.4379 40L81.8179 29.668L83.2939 28.768C83.0539 29.296 82.7419 29.764 82.3579 30.172C81.9979 30.58 81.5179 30.892 80.9179 31.108C80.3179 31.324 79.5499 31.432 78.6139 31.432C77.1739 31.432 75.8539 31.096 74.6539 30.424C73.4539 29.728 72.4939 28.768 71.7739 27.544C71.0539 26.32 70.6939 24.904 70.6939 23.296C70.6939 21.664 71.0899 20.176 71.8819 18.832C72.6979 17.488 73.7779 16.42 75.1219 15.628C76.4659 14.836 77.9659 14.44 79.6219 14.44C81.3019 14.44 82.8139 14.836 84.1579 15.628C85.5019 16.396 86.5579 17.44 87.3259 18.76C88.1179 20.056 88.5139 21.52 88.5139 23.152C88.5139 25.456 87.7099 27.784 86.1019 30.136L79.2259 40H74.4379ZM79.6219 28.192C80.5339 28.192 81.3499 27.976 82.0699 27.544C82.7899 27.112 83.3539 26.524 83.7619 25.78C84.1699 25.036 84.3739 24.208 84.3739 23.296C84.3739 22.336 84.1699 21.484 83.7619 20.74C83.3539 19.996 82.7899 19.408 82.0699 18.976C81.3499 18.544 80.5339 18.328 79.6219 18.328C78.7099 18.328 77.8939 18.544 77.1739 18.976C76.4539 19.408 75.8779 19.996 75.4459 20.74C75.0379 21.484 74.8339 22.336 74.8339 23.296C74.8339 24.232 75.0379 25.072 75.4459 25.816C75.8779 26.536 76.4539 27.112 77.1739 27.544C77.9179 27.976 78.7339 28.192 79.6219 28.192Z" fill="white"/>
<path d="M17.6713 40.24C16.4393 40.24 15.3193 40.024 14.3113 39.592C13.3033 39.144 12.4313 38.528 11.6953 37.744C10.9593 36.944 10.3913 36.024 9.9913 34.984C9.6073 33.928 9.4153 32.8 9.4153 31.6C9.4153 30.4 9.6073 29.28 9.9913 28.24C10.3913 27.184 10.9593 26.264 11.6953 25.48C12.4313 24.696 13.3033 24.08 14.3113 23.632C15.3193 23.184 16.4393 22.96 17.6713 22.96C18.9353 22.96 20.0233 23.184 20.9353 23.632C21.8633 24.08 22.7113 24.688 23.4793 25.456L21.6073 27.328C21.1113 26.752 20.5353 26.312 19.8793 26.008C19.2233 25.688 18.4473 25.528 17.5513 25.528C16.4633 25.528 15.5113 25.784 14.6953 26.296C13.8953 26.808 13.2713 27.52 12.8233 28.432C12.3913 29.344 12.1753 30.4 12.1753 31.6C12.1753 32.8 12.3993 33.856 12.8473 34.768C13.2953 35.68 13.9273 36.392 14.7433 36.904C15.5753 37.416 16.5673 37.672 17.7193 37.672C18.5993 37.672 19.3593 37.512 19.9993 37.192C20.6553 36.872 21.2313 36.424 21.7273 35.848L23.5993 37.72C22.8313 38.504 21.9593 39.12 20.9833 39.568C20.0073 40.016 18.9033 40.24 17.6713 40.24ZM7.8073 30.568V28.408H19.3513L18.6553 30.568H7.8073ZM7.8073 34.768V32.608H18.3673L17.6713 34.768H7.8073ZM30.3654 37.552L39.6534 27.688C40.4214 26.872 41.0454 26.14 41.5254 25.492C42.0054 24.844 42.3534 24.232 42.5694 23.656C42.7854 23.08 42.8934 22.492 42.8934 21.892C42.8934 20.764 42.5214 19.888 41.7774 19.264C41.0574 18.616 40.1334 18.292 39.0054 18.292C37.8054 18.292 36.7494 18.592 35.8374 19.192C34.9254 19.792 34.1094 20.728 33.3894 22L30.5094 19.624C31.4934 17.92 32.7054 16.636 34.1454 15.772C35.5854 14.884 37.2534 14.44 39.1494 14.44C40.7094 14.44 42.0774 14.752 43.2534 15.376C44.4294 16 45.3414 16.876 45.9894 18.004C46.6374 19.108 46.9614 20.392 46.9614 21.856C46.9614 22.912 46.8294 23.86 46.5654 24.7C46.3254 25.516 45.9054 26.344 45.3054 27.184C44.7054 28 43.8774 28.96 42.8214 30.064L35.6934 37.444L30.3654 37.552ZM30.3654 40V37.552L33.9294 36.292H47.4654V40H30.3654ZM49.842 31L58.806 14.8H63.486L54.306 31H49.842ZM49.842 33.52V31L51.606 29.812H69.39V33.52H49.842ZM61.794 40V23.512H65.862V40H61.794ZM74.4379 40L81.8179 29.668L83.2939 28.768C83.0539 29.296 82.7419 29.764 82.3579 30.172C81.9979 30.58 81.5179 30.892 80.9179 31.108C80.3179 31.324 79.5499 31.432 78.6139 31.432C77.1739 31.432 75.8539 31.096 74.6539 30.424C73.4539 29.728 72.4939 28.768 71.7739 27.544C71.0539 26.32 70.6939 24.904 70.6939 23.296C70.6939 21.664 71.0899 20.176 71.8819 18.832C72.6979 17.488 73.7779 16.42 75.1219 15.628C76.4659 14.836 77.9659 14.44 79.6219 14.44C81.3019 14.44 82.8139 14.836 84.1579 15.628C85.5019 16.396 86.5579 17.44 87.3259 18.76C88.1179 20.056 88.5139 21.52 88.5139 23.152C88.5139 25.456 87.7099 27.784 86.1019 30.136L79.2259 40H74.4379ZM79.6219 28.192C80.5339 28.192 81.3499 27.976 82.0699 27.544C82.7899 27.112 83.3539 26.524 83.7619 25.78C84.1699 25.036 84.3739 24.208 84.3739 23.296C84.3739 22.336 84.1699 21.484 83.7619 20.74C83.3539 19.996 82.7899 19.408 82.0699 18.976C81.3499 18.544 80.5339 18.328 79.6219 18.328C78.7099 18.328 77.8939 18.544 77.1739 18.976C76.4539 19.408 75.8779 19.996 75.4459 20.74C75.0379 21.484 74.8339 22.336 74.8339 23.296C74.8339 24.232 75.0379 25.072 75.4459 25.816C75.8779 26.536 76.4539 27.112 77.1739 27.544C77.9179 27.976 78.7339 28.192 79.6219 28.192Z" fill="#99FF50"/>
<path d="M17 74C26.8235 63.9716 39.7796 57.753 52.9722 53.5146C54.2457 53.1055 60.7908 50.1527 58.024 53.8042C57.2451 54.8322 49.1116 64.8223 49.4455 65.0027C49.8834 65.2392 50.4287 64.829 50.8943 64.6551C52.295 64.1322 53.646 63.4815 55.031 62.9174C60.739 60.5928 64.427 59.155 70.396 57.0286C73.8313 55.8048 79.608 53.7538 83.5114 52.8775C85.9261 52.3354 86.5754 52.6786 85.1699 54.5765C84.9509 54.8724 81.911 58.4526 81.8911 58.4767C81.2898 59.2055 77.9706 62.3967 78.4216 63.767C78.8313 65.012 85.9315 64.269 87 64.269" stroke="#99FF50" stroke-width="2" stroke-linecap="round"/>
</svg>
