<svg width="115" height="20" viewBox="0 0 115 20" fill="none" xmlns="http://www.w3.org/2000/svg">
<path d="M105.627 19.08C105.265 19.08 105.085 18.8993 105.085 18.538L105.139 12.0334C105.139 11.8166 105.049 11.7624 104.868 11.8708L99.4474 15.1773L99.1764 15.2857C98.9957 15.2857 98.8331 15.1773 98.6885 14.9605L98.0381 13.768C97.9658 13.6234 97.9297 13.515 97.9297 13.4427C97.9297 13.2259 98.02 13.0814 98.2007 13.0091L103.73 9.70261C103.802 9.66648 103.838 9.61227 103.838 9.54C103.838 9.46773 103.802 9.41352 103.73 9.37739L98.2007 6.07091C98.0562 5.99864 97.9658 5.89023 97.9297 5.74568C97.9297 5.60114 97.9658 5.45659 98.0381 5.31205L98.6885 4.01114C98.8692 3.64977 99.1222 3.5775 99.4474 3.79432L104.868 7.155C105.049 7.22727 105.139 7.17307 105.139 6.99239L105.085 0.542045C105.085 0.180682 105.265 0 105.627 0H107.036C107.397 0 107.578 0.180682 107.578 0.542045V6.99239C107.578 7.06466 107.614 7.11886 107.687 7.155C107.759 7.19114 107.813 7.19114 107.849 7.155L113.215 3.79432C113.36 3.72205 113.468 3.68591 113.541 3.68591C113.721 3.68591 113.866 3.79432 113.974 4.01114L114.679 5.31205C114.715 5.38432 114.733 5.47466 114.733 5.58307C114.733 5.79989 114.643 5.9625 114.462 6.07091L108.987 9.37739C108.951 9.41352 108.933 9.46773 108.933 9.54C108.933 9.61227 108.951 9.66648 108.987 9.70261L114.462 13.0091C114.787 13.2259 114.86 13.4789 114.679 13.768L113.974 15.0689C113.902 15.2134 113.794 15.3038 113.649 15.3399C113.504 15.376 113.36 15.358 113.215 15.2857L107.849 11.8708C107.813 11.8347 107.759 11.8347 107.687 11.8708C107.614 11.9069 107.578 11.9611 107.578 12.0334V18.538C107.578 18.8993 107.397 19.08 107.036 19.08H105.627Z" fill="#99FF50"/>
<path d="M86.0369 19.08C85.6755 19.08 85.4948 18.8993 85.4948 18.538L85.549 12.0334C85.549 11.8166 85.4587 11.7624 85.278 11.8708L79.8576 15.1773L79.5865 15.2857C79.4059 15.2857 79.2433 15.1773 79.0987 14.9605L78.4483 13.768C78.376 13.6234 78.3398 13.515 78.3398 13.4427C78.3398 13.2259 78.4302 13.0814 78.6109 13.0091L84.1397 9.70261C84.212 9.66648 84.2481 9.61227 84.2481 9.54C84.2481 9.46773 84.212 9.41352 84.1397 9.37739L78.6109 6.07091C78.4663 5.99864 78.376 5.89023 78.3398 5.74568C78.3398 5.60114 78.376 5.45659 78.4483 5.31205L79.0987 4.01114C79.2794 3.64977 79.5323 3.5775 79.8576 3.79432L85.278 7.155C85.4587 7.22727 85.549 7.17307 85.549 6.99239L85.4948 0.542045C85.4948 0.180682 85.6755 0 86.0369 0H87.4462C87.8076 0 87.9883 0.180682 87.9883 0.542045V6.99239C87.9883 7.06466 88.0244 7.11886 88.0967 7.155C88.1689 7.19114 88.2231 7.19114 88.2593 7.155L93.6255 3.79432C93.7701 3.72205 93.8785 3.68591 93.9508 3.68591C94.1314 3.68591 94.276 3.79432 94.3844 4.01114L95.089 5.31205C95.1252 5.38432 95.1433 5.47466 95.1433 5.58307C95.1433 5.79989 95.0529 5.9625 94.8722 6.07091L89.3976 9.37739C89.3614 9.41352 89.3434 9.46773 89.3434 9.54C89.3434 9.61227 89.3614 9.66648 89.3976 9.70261L94.8722 13.0091C95.1975 13.2259 95.2697 13.4789 95.089 13.768L94.3844 15.0689C94.3121 15.2134 94.2037 15.3038 94.0592 15.3399C93.9146 15.376 93.7701 15.358 93.6255 15.2857L88.2593 11.8708C88.2231 11.8347 88.1689 11.8347 88.0967 11.8708C88.0244 11.9069 87.9883 11.9611 87.9883 12.0334V18.538C87.9883 18.8993 87.8076 19.08 87.4462 19.08H86.0369Z" fill="#99FF50"/>
<path d="M66.4568 19.08C66.0954 19.08 65.9148 18.8993 65.9148 18.538L65.969 12.0334C65.969 11.8166 65.8786 11.7624 65.6979 11.8708L60.2775 15.1773L60.0065 15.2857C59.8258 15.2857 59.6632 15.1773 59.5186 14.9605L58.8682 13.768C58.7959 13.6234 58.7598 13.515 58.7598 13.4427C58.7598 13.2259 58.8501 13.0814 59.0308 13.0091L64.5597 9.70261C64.6319 9.66648 64.6681 9.61227 64.6681 9.54C64.6681 9.46773 64.6319 9.41352 64.5597 9.37739L59.0308 6.07091C58.8862 5.99864 58.7959 5.89023 58.7598 5.74568C58.7598 5.60114 58.7959 5.45659 58.8682 5.31205L59.5186 4.01114C59.6993 3.64977 59.9523 3.5775 60.2775 3.79432L65.6979 7.155C65.8786 7.22727 65.969 7.17307 65.969 6.99239L65.9148 0.542045C65.9148 0.180682 66.0954 0 66.4568 0H67.8661C68.2275 0 68.4082 0.180682 68.4082 0.542045V6.99239C68.4082 7.06466 68.4443 7.11886 68.5166 7.155C68.5889 7.19114 68.6431 7.19114 68.6792 7.155L74.0454 3.79432C74.19 3.72205 74.2984 3.68591 74.3707 3.68591C74.5514 3.68591 74.6959 3.79432 74.8043 4.01114L75.509 5.31205C75.5451 5.38432 75.5632 5.47466 75.5632 5.58307C75.5632 5.79989 75.4728 5.9625 75.2922 6.07091L69.8175 9.37739C69.7814 9.41352 69.7633 9.46773 69.7633 9.54C69.7633 9.61227 69.7814 9.66648 69.8175 9.70261L75.2922 13.0091C75.6174 13.2259 75.6897 13.4789 75.509 13.768L74.8043 15.0689C74.732 15.2134 74.6236 15.3038 74.4791 15.3399C74.3345 15.376 74.19 15.358 74.0454 15.2857L68.6792 11.8708C68.6431 11.8347 68.5889 11.8347 68.5166 11.8708C68.4443 11.9069 68.4082 11.9611 68.4082 12.0334V18.538C68.4082 18.8993 68.2275 19.08 67.8661 19.08H66.4568Z" fill="#99FF50"/>
<path d="M46.867 19.08C46.5056 19.08 46.3249 18.8993 46.3249 18.538L46.3791 12.0334C46.3791 11.8166 46.2888 11.7624 46.1081 11.8708L40.6877 15.1773L40.4166 15.2857C40.2359 15.2857 40.0733 15.1773 39.9288 14.9605L39.2783 13.768C39.2061 13.6234 39.1699 13.515 39.1699 13.4427C39.1699 13.2259 39.2603 13.0814 39.4409 13.0091L44.9698 9.70261C45.0421 9.66648 45.0782 9.61227 45.0782 9.54C45.0782 9.46773 45.0421 9.41352 44.9698 9.37739L39.4409 6.07091C39.2964 5.99864 39.2061 5.89023 39.1699 5.74568C39.1699 5.60114 39.2061 5.45659 39.2783 5.31205L39.9288 4.01114C40.1095 3.64977 40.3624 3.5775 40.6877 3.79432L46.1081 7.155C46.2888 7.22727 46.3791 7.17307 46.3791 6.99239L46.3249 0.542045C46.3249 0.180682 46.5056 0 46.867 0H48.2763C48.6377 0 48.8183 0.180682 48.8183 0.542045V6.99239C48.8183 7.06466 48.8545 7.11886 48.9267 7.155C48.999 7.19114 49.0532 7.19114 49.0894 7.155L54.4556 3.79432C54.6001 3.72205 54.7086 3.68591 54.7808 3.68591C54.9615 3.68591 55.1061 3.79432 55.2145 4.01114L55.9191 5.31205C55.9553 5.38432 55.9733 5.47466 55.9733 5.58307C55.9733 5.79989 55.883 5.9625 55.7023 6.07091L50.2276 9.37739C50.1915 9.41352 50.1734 9.46773 50.1734 9.54C50.1734 9.61227 50.1915 9.66648 50.2276 9.70261L55.7023 13.0091C56.0275 13.2259 56.0998 13.4789 55.9191 13.768L55.2145 15.0689C55.1422 15.2134 55.0338 15.3038 54.8892 15.3399C54.7447 15.376 54.6001 15.358 54.4556 15.2857L49.0894 11.8708C49.0532 11.8347 48.999 11.8347 48.9267 11.8708C48.8545 11.9069 48.8183 11.9611 48.8183 12.0334V18.538C48.8183 18.8993 48.6377 19.08 48.2763 19.08H46.867Z" fill="#99FF50"/>
<path d="M27.2869 19.08C26.9255 19.08 26.7448 18.8993 26.7448 18.538L26.799 12.0334C26.799 11.8166 26.7087 11.7624 26.528 11.8708L21.1076 15.1773L20.8365 15.2857C20.6559 15.2857 20.4933 15.1773 20.3487 14.9605L19.6983 13.768C19.626 13.6234 19.5898 13.515 19.5898 13.4427C19.5898 13.2259 19.6802 13.0814 19.8609 13.0091L25.3897 9.70261C25.462 9.66648 25.4981 9.61227 25.4981 9.54C25.4981 9.46773 25.462 9.41352 25.3897 9.37739L19.8609 6.07091C19.7163 5.99864 19.626 5.89023 19.5898 5.74568C19.5898 5.60114 19.626 5.45659 19.6983 5.31205L20.3487 4.01114C20.5294 3.64977 20.7823 3.5775 21.1076 3.79432L26.528 7.155C26.7087 7.22727 26.799 7.17307 26.799 6.99239L26.7448 0.542045C26.7448 0.180682 26.9255 0 27.2869 0H28.6962C29.0576 0 29.2383 0.180682 29.2383 0.542045V6.99239C29.2383 7.06466 29.2744 7.11886 29.3467 7.155C29.4189 7.19114 29.4731 7.19114 29.5093 7.155L34.8755 3.79432C35.0201 3.72205 35.1285 3.68591 35.2008 3.68591C35.3814 3.68591 35.526 3.79432 35.6344 4.01114L36.339 5.31205C36.3752 5.38432 36.3933 5.47466 36.3933 5.58307C36.3933 5.79989 36.3029 5.9625 36.1222 6.07091L30.6476 9.37739C30.6114 9.41352 30.5934 9.46773 30.5934 9.54C30.5934 9.61227 30.6114 9.66648 30.6476 9.70261L36.1222 13.0091C36.4475 13.2259 36.5197 13.4789 36.339 13.768L35.6344 15.0689C35.5621 15.2134 35.4537 15.3038 35.3092 15.3399C35.1646 15.376 35.0201 15.358 34.8755 15.2857L29.5093 11.8708C29.4731 11.8347 29.4189 11.8347 29.3467 11.8708C29.2744 11.9069 29.2383 11.9611 29.2383 12.0334V18.538C29.2383 18.8993 29.0576 19.08 28.6962 19.08H27.2869Z" fill="#99FF50"/>
<path d="M7.69705 19.08C7.33568 19.08 7.155 18.8993 7.155 18.538L7.2092 12.0334C7.2092 11.8166 7.11886 11.7624 6.93818 11.8708L1.51773 15.1773L1.2467 15.2857C1.06602 15.2857 0.903409 15.1773 0.758864 14.9605L0.108409 13.768C0.0361364 13.6234 0 13.515 0 13.4427C0 13.2259 0.0903409 13.0814 0.271023 13.0091L5.79989 9.70261C5.87216 9.66648 5.9083 9.61227 5.9083 9.54C5.9083 9.46773 5.87216 9.41352 5.79989 9.37739L0.271023 6.07091C0.126477 5.99864 0.0361364 5.89023 0 5.74568C0 5.60114 0.0361364 5.45659 0.108409 5.31205L0.758864 4.01114C0.939546 3.64977 1.1925 3.5775 1.51773 3.79432L6.93818 7.155C7.11886 7.22727 7.2092 7.17307 7.2092 6.99239L7.155 0.542045C7.155 0.180682 7.33568 0 7.69705 0H9.10636C9.46773 0 9.64841 0.180682 9.64841 0.542045V6.99239C9.64841 7.06466 9.68455 7.11886 9.75682 7.155C9.82909 7.19114 9.8833 7.19114 9.91943 7.155L15.2857 3.79432C15.4302 3.72205 15.5386 3.68591 15.6109 3.68591C15.7916 3.68591 15.9361 3.79432 16.0445 4.01114L16.7492 5.31205C16.7853 5.38432 16.8034 5.47466 16.8034 5.58307C16.8034 5.79989 16.7131 5.9625 16.5324 6.07091L11.0577 9.37739C11.0216 9.41352 11.0035 9.46773 11.0035 9.54C11.0035 9.61227 11.0216 9.66648 11.0577 9.70261L16.5324 13.0091C16.8576 13.2259 16.9299 13.4789 16.7492 13.768L16.0445 15.0689C15.9723 15.2134 15.8639 15.3038 15.7193 15.3399C15.5748 15.376 15.4302 15.358 15.2857 15.2857L9.91943 11.8708C9.8833 11.8347 9.82909 11.8347 9.75682 11.8708C9.68455 11.9069 9.64841 11.9611 9.64841 12.0334V18.538C9.64841 18.8993 9.46773 19.08 9.10636 19.08H7.69705Z" fill="#99FF50"/>
</svg>
