<svg width="87" height="77" fill="none" xmlns="http://www.w3.org/2000/svg"><circle cx="19" cy="19" r="19" fill="#95F94E"/><circle cx="68" cy="22" r="19" fill="#95F94E" fill-opacity=".5"/><circle cx="49" cy="45" r="29" fill="#95F94E" stroke="#0D1217" stroke-width="6"/><circle cx="55.5" cy="56.5" r="9.5" fill="#0D1217"/><circle cx="12" cy="15" r="8" fill="#0D1217"/><path d="M58.222 58.897c-.024.31-.054.562-.09.755a7.75 7.75 0 0 1-.175.75c-.146.612-.455 1.053-.928 1.322-.465.271-1.038.344-1.72.218-.64-.118-1.128-.374-1.462-.767-.334-.393-.483-.914-.446-1.562l.026-.344c.018-.096.075-.135.17-.117l1.408.259c.096.018.14.075.13.173a1.063 1.063 0 0 0-.011.197c-.002.414.15.65.454.706.16.03.298 0 .414-.086a.877.877 0 0 0 .289-.419 4.834 4.834 0 0 0 .223-1.277.733.733 0 0 0-.127-.459.513.513 0 0 0-.346-.213c-.305-.056-.528.048-.667.312-.04.084-.101.119-.181.104l-1.42-.262a.18.18 0 0 1-.101-.056.178.178 0 0 1-.017-.115l.899-4.872a.132.132 0 0 1 .053-.09.152.152 0 0 1 .118-.027l4.246.782c.04.008.07.03.087.066.028.03.038.065.03.105l-.215 1.167a.152.152 0 0 1-.068.1.133.133 0 0 1-.102.018l-2.635-.486c-.04-.007-.064.01-.071.05l-.373 2.02c-.004.024.001.042.016.053.014.01.032.006.052-.015.162-.112.341-.186.539-.224.198-.039.4-.038.61 0 .513.095.89.338 1.133.731.25.395.337.896.258 1.503ZM9.706 18.371c-.035-.01-.058-.028-.07-.056-.011-.029-.006-.059.015-.091l2.762-4.551c.022-.032.015-.053-.02-.063l-.972-.26c-.03-.008-.048.003-.056.033l-.083.309a.113.113 0 0 1-.057.07.098.098 0 0 1-.077.007l-.795-.213a.134.134 0 0 1-.072-.048.133.133 0 0 1-.006-.086l.362-1.314a.099.099 0 0 1 .045-.063.114.114 0 0 1 .09-.014l3.17.85c.029.007.05.025.06.053.02.025.025.051.017.08l-.241.901a.766.766 0 0 1-.051.12l-2.787 4.572c-.034.054-.08.073-.139.058l-1.095-.294Z" fill="#95F94E"/></svg>
