<svg width="89" height="102" fill="none" xmlns="http://www.w3.org/2000/svg"><path d="M48.67 44.55c-2.48-.01-4.35-.92-6.21-1.83-1.39-.68-2.84-1-4.36-.75-1.15.19-2.61.55-2.63 1.86-.05 2.79-2 1.9-3.38 1.93-2.08.05-1.42-1.64-1.46-2.75-.08-1.91-.02-3.83-.02-5.74.01-2.89 1.72-3.95 4.43-2.63.52.25.8.66 1.46.32 2.41-1.24 4.7-.51 6.92.59 1.75.87 3.57 1.41 5.52 1.23.94-.09 2.08-.07 2.11-1.56.02-.96.83-.88 1.48-.9 1-.03 2 .05 3-.03 1.58-.13 2.03.51 1.85 2.05-.66 5.7-2.38 10.99-5.33 15.94-2.28 3.82-3.95 7.95-4.42 12.4-.22 2.06-1.05 2.57-2.84 2.32-.16-.02-.33 0-.5 0-4.85.01-4.89 0-3.77-4.67 1.19-4.99 3.6-9.46 6.04-13.91.62-1.15 1.25-2.31 2.11-3.87ZM79.239 44.62c-2.51-.16-4.52-1.13-6.53-2.08-1.32-.62-2.72-.82-4.14-.56-1.06.2-2.1.55-2.5 1.75-.59 1.78-2.25 2.59-3.95 2.02-.98-.33-.86-1.09-.86-1.82-.01-2.16 0-4.33 0-6.49 0-3.25 1.62-4.2 4.64-2.6.38.2.62.5.98.21 2.61-2.04 4.96-.34 7.29.58 1.73.69 3.44 1.3 5.29 1.16.94-.07 1.88-.1 2.19-1.51.4-1.82 2.09-.88 3.18-.92 3.46-.13 3.49-.04 3.03 3.4-.64 4.84-2.19 9.39-4.6 13.62-2.49 4.38-4.5 8.91-5.1 13.96-.15 1.26-.64 1.73-1.89 1.69-6.37-.24-6.72 1.45-4.73-6.03 1.25-4.69 3.62-8.92 5.98-13.13.54-1 1.07-2.02 1.72-3.25ZM9.51 66.49c-.47-.49-.27-.98-.01-1.48.51-.27.62-.59.13-.99.65-5.46 3.44-10.08 5.86-14.84.68-1.33 2.07-2.7 1.95-3.93-.15-1.53-2.38-.9-3.6-1.57-1.88-1.02-3.83-2.11-6.12-1.74-1.51.24-2.94.54-3.03 2.59-.1 2.13-1.85 1.06-2.9 1.25C.56 46-.04 45.44 0 44.1c.07-2.24.02-4.49.02-6.74 0-3.09 1.67-4.1 4.48-2.59.48.26.73.49 1.23.23 2.5-1.31 4.85-.56 7.14.6 1.52.77 3.11 1.19 4.79 1.24.88.03 2.29.08 2.44-.78.41-2.34 2.05-1.71 3.41-1.73 3.46-.05 3.49-.01 3.06 3.37-.64 5.1-2.35 9.84-4.92 14.28-2.35 4.07-4.03 8.37-4.78 13.03-.12.74.19 2.05-1.34 1.89-1.96-.87-4.02-.21-6.02-.41Z" fill="#95F94E"/><path d="M42.18 7.77c0-1.91-.03-3.82.01-5.73.03-1.09.46-1.99 1.72-2.04 1.38-.06 1.94.84 1.95 2.06.03 3.9.02 7.8-.02 11.7-.01 1.13-.61 1.94-1.82 1.94-1.21-.01-1.78-.82-1.81-1.95-.04-1.99-.01-3.98-.01-5.98h-.02ZM42.169 93.44c0-1.83-.02-3.65 0-5.48.01-1.28.39-2.41 1.91-2.39 1.36.02 1.79 1.06 1.8 2.24.02 3.73 0 7.47 0 11.2 0 1.22-.46 2.22-1.78 2.26-1.48.04-1.93-1.05-1.93-2.36v-5.47ZM19.98 76.78c-.29.44-.53.99-.93 1.39-2.57 2.6-5.16 5.18-7.76 7.75-.83.82-1.81 1.44-2.82.45-1.03-1-.72-2.07.26-3.03 2.6-2.57 5.19-5.15 7.77-7.74.72-.72 1.52-1.02 2.47-.56.66.33.87.96 1.01 1.74ZM70.33 74.87c.47 0 .94.47 1.41.95 2.47 2.47 4.94 4.93 7.42 7.39.91.9 1.51 1.94.54 3.05-1.03 1.18-2.05.58-2.97-.35-2.57-2.6-5.18-5.16-7.76-7.75-.67-.67-1.19-1.41-.58-2.43.4-.64.95-.9 1.94-.86ZM19.931 24.56c-.03.79-.39 1.34-.98 1.71-.62.39-1.33.37-1.85-.14-2.96-2.91-5.92-5.82-8.81-8.8-.62-.64-.59-1.56.02-2.29.64-.76 1.64-.85 2.24-.28 3.1 2.99 6.1 6.09 9.13 9.17.16.16.18.45.25.63ZM70.19 26.53c-.92 0-1.42-.37-1.79-.99-.4-.67-.32-1.34.17-1.85 2.9-2.97 5.81-5.94 8.79-8.83.62-.6 1.58-.59 2.28.07.7.65.84 1.63.24 2.26-2.93 3.06-5.95 6.03-8.96 9.01-.21.22-.58.26-.73.33ZM59.87 10.67c-.7 1.92-1.43 4.11-2.31 6.25-.37.89-1.28.99-2.15.69-.93-.32-1.34-1.09-1.07-1.97.67-2.13 1.42-4.23 2.25-6.31.3-.74 1.07-1.05 1.89-.82.91.27 1.31.95 1.39 2.16ZM32.18 83.48c1.43.28 1.85 1.27 1.44 2.57-.56 1.82-1.25 3.6-1.92 5.39-.4 1.07-1.16 1.7-2.32 1.26-1.11-.42-1.38-1.36-1.02-2.46.6-1.81 1.19-3.63 1.85-5.42.31-.82.93-1.38 1.97-1.34ZM33.14 15.49c.06 1.38-.22 2.04-1.04 2.33-.89.32-1.76.13-2.13-.74-.88-2.05-1.67-4.14-2.37-6.26-.29-.88.24-1.59 1.1-1.98.92-.42 1.8-.1 2.14.67.94 2.12 1.67 4.32 2.3 5.98ZM56.33 83.34c1.04-.03 1.66.35 1.96 1.13.74 1.93 1.5 3.87 2.14 5.83.33 1.01-.2 1.81-1.16 2.18-.89.34-1.76.05-2.11-.81-.83-2.07-1.62-4.18-2.23-6.32-.31-1.11.35-1.9 1.4-2.01ZM9.51 66.49c2 .2 4.06-.47 6.01.42-2.01-.06-4.08.76-6.01-.42ZM9.629 64.01c.49.4.38.72-.13.99-.21-.36-.1-.68.13-.99Z" fill="#95F94E" fill-opacity=".5"/></svg>
