<svg width="106" height="103" fill="none" xmlns="http://www.w3.org/2000/svg"><path fill-rule="evenodd" clip-rule="evenodd" d="M98.294 9.215c-36.724-12.311-56.8-12.262-91.872 0C9.255 33.088 6.837 42.848 0 57.97c17.557 23.465 29.2 32.976 52.554 44.691C76.981 90.132 88.41 80.278 105.11 57.969c-6.87-15.794-8.882-26.068-6.815-48.754ZM61.79 80.034a13.425 13.425 0 0 0 4.192-9.763 13.42 13.42 0 0 0-3.872-9.447c-2.18 4.525-3.031 7.782-2.95 10.702.075 2.73.969 5.308 2.63 8.508Zm-2.138 1.657a13.4 13.4 0 0 1-7.133 2.044c-2.866 0-5.523-.896-7.706-2.422 2.167-4.564 3.164-8.183 3.068-11.628-.098-3.511-1.326-6.68-3.271-10.31a13.403 13.403 0 0 1 7.909-2.567c2.768 0 5.342.836 7.481 2.268-2.469 4.992-3.604 8.857-3.502 12.524.095 3.44 1.277 6.553 3.154 10.092Zm-20.596-11.42c0-3.492 1.329-6.673 3.51-9.066 1.675 3.221 2.577 5.81 2.653 8.554.075 2.71-.653 5.71-2.5 9.744a13.417 13.417 0 0 1-3.663-9.232Zm13.463 16.126c8.906 0 16.126-7.22 16.126-16.126 0-8.906-7.22-16.126-16.126-16.126-8.907 0-16.126 7.22-16.126 16.126 0 8.906 7.22 16.126 16.126 16.126ZM77.804 34.66a.314.314 0 0 0 .193.065h2.515a.232.232 0 0 0 .172-.065.267.267 0 0 0 .086-.193v-5.589l.022-.128L83.822 20c.029-.1.022-.172-.021-.215-.043-.058-.108-.086-.194-.086h-2.644c-.157 0-.257.071-.3.215l-1.333 5.137c-.014.043-.036.064-.064.064-.03 0-.05-.021-.065-.064l-1.332-5.137c-.043-.144-.144-.215-.302-.215h-2.643c-.158 0-.237.064-.237.193a.24.24 0 0 0 .022.108l3.009 8.747.022.13v5.588c0 .071.021.136.064.193Zm-7.393.258c-.83 0-1.562-.165-2.192-.494a3.567 3.567 0 0 1-1.462-1.376c-.344-.602-.516-1.29-.516-2.063v-.624c0-.071.022-.128.065-.171a.267.267 0 0 1 .193-.086h2.472c.072 0 .13.028.172.086.058.043.086.1.086.171v.473c0 .445.115.803.344 1.075.23.272.516.408.86.408s.63-.129.86-.387c.229-.257.343-.594.343-1.01 0-.43-.143-.795-.43-1.096-.286-.315-.845-.774-1.676-1.375a20.657 20.657 0 0 1-1.74-1.376 5.439 5.439 0 0 1-1.14-1.483c-.315-.588-.473-1.268-.473-2.042 0-1.218.38-2.192 1.14-2.923.759-.73 1.762-1.096 3.008-1.096 1.261 0 2.272.38 3.03 1.139.775.76 1.162 1.755 1.162 2.987v.516a.267.267 0 0 1-.086.194.232.232 0 0 1-.172.064h-2.472a.314.314 0 0 1-.194-.064.314.314 0 0 1-.064-.194v-.58c0-.444-.115-.795-.344-1.053a1.04 1.04 0 0 0-.86-.409 1.04 1.04 0 0 0-.838.387c-.215.244-.322.588-.322 1.032 0 .43.136.81.408 1.14.272.329.81.787 1.612 1.375.888.659 1.555 1.196 1.999 1.612.459.401.81.852 1.053 1.354.258.487.387 1.075.387 1.762 0 1.261-.387 2.264-1.16 3.01-.774.745-1.792 1.117-3.053 1.117Zm-7.222-.408c.014.157.107.236.28.236h2.578c.158 0 .237-.064.237-.193l-.022-.086-3.138-14.53c-.028-.157-.121-.236-.279-.236h-2.902c-.157 0-.25.079-.28.236l-3.159 14.53c-.043.186.029.28.215.28h2.515c.172 0 .265-.08.28-.237l.343-2.064c0-.071.043-.107.13-.107h2.729c.086 0 .129.036.129.107l.344 2.064Zm-2.816-4.514c-.057 0-.086-.036-.086-.107l.968-5.868c.014-.043.035-.065.064-.065.029 0 .05.022.064.065l1.01 5.868c.015.071-.014.107-.085.107h-1.935ZM57.04 19.7c.071 0 .129.028.172.086.057.043.086.1.086.172v2.085a.267.267 0 0 1-.086.193.232.232 0 0 1-.172.064h-2.687c-.072 0-.107.036-.107.108v12.08a.267.267 0 0 1-.086.193.233.233 0 0 1-.172.064h-2.515a.314.314 0 0 1-.194-.064.314.314 0 0 1-.064-.194v-12.08c0-.07-.036-.107-.107-.107h-2.58a.314.314 0 0 1-.193-.064.314.314 0 0 1-.065-.194v-2.084c0-.072.022-.13.065-.172a.267.267 0 0 1 .193-.086h8.512Zm-12.739.086a.232.232 0 0 0-.064.172l.021 8.253c0 .043-.021.072-.064.086-.029 0-.05-.021-.065-.064l-2.686-8.318c-.043-.144-.137-.215-.28-.215h-2.816a.267.267 0 0 0-.193.086.233.233 0 0 0-.064.172v14.53c0 .07.021.135.064.193a.315.315 0 0 0 .193.064h2.494a.232.232 0 0 0 .172-.064.267.267 0 0 0 .086-.194l-.022-8.253c0-.043.015-.065.043-.065.043-.014.072 0 .086.043l2.665 8.318c.043.144.136.215.28.215h2.837a.232.232 0 0 0 .172-.064.267.267 0 0 0 .086-.194v-14.53a.204.204 0 0 0-.086-.171.204.204 0 0 0-.172-.086h-2.493a.267.267 0 0 0-.194.086Zm-9.831 14.96c-.172 0-.265-.08-.28-.237l-.344-2.064c0-.071-.043-.107-.129-.107h-2.73c-.085 0-.128.036-.128.107l-.344 2.064c-.015.157-.108.236-.28.236h-2.514c-.187 0-.258-.093-.215-.28l3.16-14.529c.028-.157.121-.236.279-.236h2.901c.158 0 .251.079.28.236l3.138 14.53.021.086c0 .129-.079.193-.236.193h-2.58Zm-3.181-4.858c0 .071.028.107.085.107h1.935c.072 0 .1-.036.086-.107l-1.01-5.868c-.015-.043-.036-.065-.065-.065-.029 0-.05.022-.064.065l-.968 5.868Zm-3.093-7.652a.267.267 0 0 0 .086-.194v-2.084a.204.204 0 0 0-.086-.172.204.204 0 0 0-.172-.086h-7.35a.267.267 0 0 0-.194.086.232.232 0 0 0-.065.172v14.53c0 .07.022.135.065.193a.315.315 0 0 0 .193.064h2.515a.232.232 0 0 0 .172-.064.267.267 0 0 0 .086-.194V28.62c0-.071.036-.107.107-.107h2.558a.232.232 0 0 0 .172-.064.267.267 0 0 0 .086-.194V26.17a.204.204 0 0 0-.086-.172.204.204 0 0 0-.172-.086h-2.558c-.071 0-.107-.036-.107-.107v-3.396c0-.072.036-.108.107-.108h4.471a.232.232 0 0 0 .172-.064Z" fill="#98FD50"/></svg>
