<svg width="77" height="86" fill="none" xmlns="http://www.w3.org/2000/svg"><path d="M8.94 54.09c.99-1.52 1.83-2.79 3.05-4.67-3.28 1.25-6.03 1.7-8.28-.33-1.16-1.04-2.17-2.6-2.53-4.1-.94-3.93 1.61-6.78 6.9-8.07-1.16-3.7-.86-7.05 2.86-9.21 2.49-1.45 5-1.16 7.21.58 2.88 2.26 3.15 5.24 2.13 7.86 2.17 1.6 4.48 2.75 5.96 4.58.9 1.12.96 3.37.62 4.94-.9 4.08-4.58 5.45-10.45 3.97 1.02 1.59 1.87 2.91 2.86 4.45H8.94Z" fill="#95F94E" fill-opacity=".5"/><path d="M38.82 5.14c1.13-1.46 1.9-3.04 3.15-3.98 3.73-2.82 9.09-.17 9.89 4.74.5 3.11-.13 6.14-2.14 8.43-2.93 3.33-6.27 6.3-9.54 9.31-.42.39-1.65.45-2.15.12-4.52-3.02-8.59-6.52-10.97-11.57-1.29-2.73-1.63-5.58-.2-8.38 1.22-2.4 3.17-3.86 5.94-3.77 2.66.08 4.48 1.52 5.5 3.97.17.36.34.72.52 1.13Z" fill="#95F94E"/><path d="M66.31 49.69c1.03 1.54 1.87 2.81 2.87 4.31H58.99c.83-1.34 1.69-2.72 2.46-3.96-2.26 0-4.56.59-6.34-.11-4.65-1.84-5.43-8.26-1.67-11.85 1.86-1.77 3.92-3.34 5.72-5.16 1.74-1.76 3.26-3.72 4.6-5.27 3.63 3.48 7.28 6.95 10.89 10.45 2.58 2.5 3.06 6.35 1.22 9.34-1.86 3.02-4.52 3.77-8.43 2.37-.21-.09-.45-.06-1.13-.12Z" fill="#95F94E" fill-opacity=".5"/><path d="M26.36 71.61C30.73 66.8 34.98 62.12 39 57.7c4.03 4.44 8.29 9.12 12.53 13.77-4.15 4.57-8.44 9.29-12.67 13.93-1.83-2.2-3.8-4.74-5.94-7.11-2.11-2.32-4.39-4.48-6.56-6.68Z" fill="#95F94E"/></svg>
