<svg width="81" height="102" fill="none" xmlns="http://www.w3.org/2000/svg"><path fill-rule="evenodd" clip-rule="evenodd" d="M13.77 78.57c2.895-1.53 9.071-5.112 11.81-8.162.633-.7 1.397-1.297 2.241-1.875l.899.976s6.843-4.768 8.95-7.963c2.706 1.841 3.072 3.116 3.072 3.116.155-.1.92-.443 1.076-.554-.6 3.038-1.62 8.717 1.74 13.575 0 0 .833 8.606.988 11.423 0 0-1.353 1.653-1.586 2.684-.1.443.178.799.765 1.242-.088.1-.144.245-.044.333 0 0 .865.654.975.743.089.066.322-.067.422-.134.133.089.277.189.42.288-.1.112-.154.322-.032.41 0 0 .953.51 1.087.588.1.055.321-.133.41-.211 1.086.587 2.295 1.32 3.304 2.084-.088.112-.145.255-.066.345 0 0 .776.754.887.854.088.088.333-.034.443-.089.122.133.233.267.333.388-.088.1-.133.255-.022.333l1.065.621c.079.055.234-.045.344-.133 6.421 2.928.543-6.743-2.939-9.438-.344-.266-.278-5.779-.055-7.354a91.69 91.69 0 0 0 .876-16.502s1.109-5.756-.189-7.73c-.188-.288-.499-.643-.909-1.042 1-.488 1.62-.92.278-1.664-1.841-1.042-2.883-3.837-6.898-6.2 1.842-2.816 5.323-8.472 6.422-12.554 0 0 3.393-6.743 4.08-9.871.688-3.128 3.738.909 3.738.909l1.842 1.542.687-.643S64 33.252 64.91 33.473c.92.233 5.19 1 3.97-4.491-1.22-5.49-2.229-6.998-2.229-6.998s.034-3.272-.466-4.791c-.499-1.53-1.042-3.039-3.216-2.54 0 0-1.109-.454-1.908.267 0 0-1.808.732-1.33 1.984 1.109 2.906-3.338-3.516-3.417-3.604-.066-.1.954-1.375 1.11-2.251 0 0 1.508-4.935.365-7.564a3.722 3.722 0 0 0-.32-.576c-.377-.654-1.033-1.696-1.587-2.174 0 0 .178.345.31.82-3.27-2.595-7.22-1.74-10.025 1.021 0 0 .3-.166.743-.321-.056.067-.122.133-.178.2 0 0-2.075 2.883-1.309 6.421 0 0 .376 1.33-.688 1.985-1.042.632-5.9.055-9.383 1.686h-.899c-3.914.067-9.78.521-11.489 1.587-.211.133-.288.376-.311.61-2.13.31-5.534 1.075-8.74 2.96-3.559 2.085-5.611 4.115-8.561 6-1.354.855-2.673.655-3.593 1.465-.91.799-.943 1.596-.943 1.596-.433.555-.421 1.33-.421 1.33-.366.755-.854 2.94.51 2.796.399-.045.487-.976.487-.976.4-.066.443-.72.533-.909.145-.321.554-.443.554-.443s.677-.222.721-.1c.078.2-.832 0-.82.6.011.2.4.442 1.053.399 2.584-.543 1.53-.887 2.796-3.039.178-.3 12.554-5.322 13.064-5.689 2.14-1.53 2.972-.899 3.616-.4.654.489 1.087 2.73 2.572 2.263 1.487-.454 4.614-.799 5.068-.488.322.212.91 5.258.566 9.948-.942 2.717-2.762 5.656-6.088 8.34 0 0-.167.366.121.754 3.227 1.863 8.307 3.293 14.452-.4 0 0-2.929 3.572-8.263 3.383-2.407-.078-4.713.122-6.721.71-1.687 3.56-2.063 7.12 1.796 9.88l-4.713 7.155 1.264 1.375c-.343.554-.766 1.197-.966 1.364-.376.3-4.99 1.253-7.741 5.911 0 0-2.872 2.84-5.39 3.793-2.517.942-3.05-.688-4.08 1.553-.034.089-.079.189-.112.278-.121.033-.233.088-.244.155-.045.145-.312.633-.233 1.109-.022.1.066.122.178.122a6.43 6.43 0 0 0-.034.654c-.088.055-.155.111-.166.166 0 .145-.178.676-.012 1.131 0 .1.1.111.212.078.066 1.22.166 2.407-.212 3.338-.155.388-.31.854-.454 1.342-.122.045-.245.1-.255.167-.045.144-.311.632-.233 1.108-.022.089.078.122.188.122-.045.222-.067.455-.088.676-.067.045-.112.088-.122.145 0 .145-.178.676-.011 1.13 0 .079.066.1.155.089.11.742.399 1.33.965 1.63 1.72.876 3.095-.876 3.893-4.537.711-3.246 2.586-4.643 5.57-6.207Z" fill="#95F94E"/><path d="M74.37 95.93a8.24 8.24 0 1 0-11.653-11.652 8.24 8.24 0 0 0 11.652 11.653Z" fill="#95F94E" fill-opacity=".5"/></svg>
