<svg xmlns="http://www.w3.org/2000/svg" width="1440" height="1008" fill="none"><path fill="#fff" fill-opacity=".06" d="M8.136 3.361 4.068-.707 0 3.361l4.068 4.068 4.068-4.068ZM59.274 3.361 55.206-.707l-4.068 4.068 4.068 4.068 4.068-4.068ZM110.411 3.361l-4.068-4.068-4.068 4.068 4.068 4.068 4.068-4.068ZM161.549 3.361l-4.068-4.068-4.068 4.068 4.068 4.068 4.068-4.068ZM212.687 3.361l-4.068-4.068-4.068 4.068 4.068 4.068 4.068-4.068ZM263.825 3.361l-4.068-4.068-4.068 4.068 4.068 4.068 4.068-4.068ZM314.963 3.361l-4.068-4.068-4.068 4.068 4.068 4.068 4.068-4.068ZM366.1 3.361l-4.068-4.068-4.068 4.068 4.068 4.068 4.068-4.068ZM417.238 3.361 413.17-.707l-4.068 4.068 4.068 4.068 4.068-4.068ZM468.376 3.361l-4.068-4.068-4.068 4.068 4.068 4.068 4.068-4.068ZM519.513 3.361l-4.068-4.068-4.067 4.068 4.067 4.068 4.068-4.068ZM570.651 3.361l-4.068-4.068-4.067 4.068 4.067 4.068 4.068-4.068ZM621.789 3.361l-4.068-4.068-4.068 4.068 4.068 4.068 4.068-4.068ZM672.927 3.361l-4.068-4.068-4.068 4.068 4.068 4.068 4.068-4.068ZM724.065 3.361l-4.068-4.068-4.068 4.068 4.068 4.068 4.068-4.068ZM775.202 3.361l-4.068-4.068-4.068 4.068 4.068 4.068 4.068-4.068ZM826.34 3.361l-4.068-4.068-4.068 4.068 4.068 4.068 4.068-4.068ZM877.478 3.361 873.41-.707l-4.068 4.068 4.068 4.068 4.068-4.068ZM928.616 3.361l-4.068-4.068-4.068 4.068 4.068 4.068 4.068-4.068ZM8.136 54.499l-4.068-4.068L0 54.499l4.068 4.068 4.068-4.068ZM59.274 54.499l-4.068-4.068-4.068 4.068 4.068 4.068 4.068-4.068ZM110.411 54.499l-4.068-4.068-4.068 4.068 4.068 4.068 4.068-4.068ZM161.549 54.499l-4.068-4.068-4.068 4.068 4.068 4.068 4.068-4.068ZM212.687 54.499l-4.068-4.068-4.068 4.068 4.068 4.068 4.068-4.068ZM263.825 54.499l-4.068-4.068-4.068 4.068 4.068 4.068 4.068-4.068ZM314.963 54.499l-4.068-4.068-4.068 4.068 4.068 4.068 4.068-4.068ZM366.1 54.499l-4.068-4.068-4.068 4.068 4.068 4.068 4.068-4.068ZM417.238 54.499l-4.068-4.068-4.068 4.068 4.068 4.068 4.068-4.068ZM468.376 54.499l-4.068-4.068-4.068 4.068 4.068 4.068 4.068-4.068ZM519.513 54.499l-4.068-4.068-4.067 4.068 4.067 4.068 4.068-4.068ZM570.651 54.499l-4.068-4.068-4.067 4.068 4.067 4.068 4.068-4.068ZM621.789 54.499l-4.068-4.068-4.068 4.068 4.068 4.068 4.068-4.068ZM672.927 54.499l-4.068-4.068-4.068 4.068 4.068 4.068 4.068-4.068ZM724.065 54.499l-4.068-4.068-4.068 4.068 4.068 4.068 4.068-4.068ZM775.202 54.499l-4.068-4.068-4.068 4.068 4.068 4.068 4.068-4.068ZM826.34 54.499l-4.068-4.068-4.068 4.068 4.068 4.068 4.068-4.068ZM877.478 54.499l-4.068-4.068-4.068 4.068 4.068 4.068 4.068-4.068ZM928.616 54.499l-4.068-4.068-4.068 4.068 4.068 4.068 4.068-4.068ZM8.136 105.637l-4.068-4.068L0 105.637l4.068 4.068 4.068-4.068ZM59.274 105.637l-4.068-4.068-4.068 4.068 4.068 4.068 4.068-4.068ZM110.411 105.637l-4.068-4.068-4.068 4.068 4.068 4.068 4.068-4.068ZM161.549 105.637l-4.068-4.068-4.068 4.068 4.068 4.068 4.068-4.068ZM212.687 105.637l-4.068-4.068-4.068 4.068 4.068 4.068 4.068-4.068ZM263.825 105.637l-4.068-4.068-4.068 4.068 4.068 4.068 4.068-4.068ZM314.963 105.637l-4.068-4.068-4.068 4.068 4.068 4.068 4.068-4.068ZM366.1 105.637l-4.068-4.068-4.068 4.068 4.068 4.068 4.068-4.068ZM417.238 105.637l-4.068-4.068-4.068 4.068 4.068 4.068 4.068-4.068ZM468.376 105.637l-4.068-4.068-4.068 4.068 4.068 4.068 4.068-4.068ZM519.513 105.637l-4.068-4.068-4.067 4.068 4.067 4.068 4.068-4.068ZM570.651 105.637l-4.068-4.068-4.067 4.068 4.067 4.068 4.068-4.068ZM621.789 105.637l-4.068-4.068-4.068 4.068 4.068 4.068 4.068-4.068ZM672.927 105.637l-4.068-4.068-4.068 4.068 4.068 4.068 4.068-4.068ZM724.065 105.637l-4.068-4.068-4.068 4.068 4.068 4.068 4.068-4.068ZM775.202 105.637l-4.068-4.068-4.068 4.068 4.068 4.068 4.068-4.068ZM826.34 105.637l-4.068-4.068-4.068 4.068 4.068 4.068 4.068-4.068ZM877.478 105.637l-4.068-4.068-4.068 4.068 4.068 4.068 4.068-4.068ZM928.616 105.637l-4.068-4.068-4.068 4.068 4.068 4.068 4.068-4.068ZM8.136 156.775l-4.068-4.068L0 156.775l4.068 4.068 4.068-4.068ZM59.274 156.775l-4.068-4.068-4.068 4.068 4.068 4.068 4.068-4.068ZM110.411 156.775l-4.068-4.068-4.068 4.068 4.068 4.068 4.068-4.068ZM161.549 156.775l-4.068-4.068-4.068 4.068 4.068 4.068 4.068-4.068ZM212.687 156.775l-4.068-4.068-4.068 4.068 4.068 4.068 4.068-4.068ZM263.825 156.775l-4.068-4.068-4.068 4.068 4.068 4.068 4.068-4.068ZM314.963 156.775l-4.068-4.068-4.068 4.068 4.068 4.068 4.068-4.068ZM366.1 156.775l-4.068-4.068-4.068 4.068 4.068 4.068 4.068-4.068ZM417.238 156.775l-4.068-4.068-4.068 4.068 4.068 4.068 4.068-4.068ZM468.376 156.775l-4.068-4.068-4.068 4.068 4.068 4.068 4.068-4.068ZM519.513 156.775l-4.068-4.068-4.067 4.068 4.067 4.068 4.068-4.068ZM570.651 156.775l-4.068-4.068-4.067 4.068 4.067 4.068 4.068-4.068ZM621.789 156.775l-4.068-4.068-4.068 4.068 4.068 4.068 4.068-4.068ZM672.927 156.775l-4.068-4.068-4.068 4.068 4.068 4.068 4.068-4.068ZM724.065 156.775l-4.068-4.068-4.068 4.068 4.068 4.068 4.068-4.068ZM775.202 156.775l-4.068-4.068-4.068 4.068 4.068 4.068 4.068-4.068ZM826.34 156.775l-4.068-4.068-4.068 4.068 4.068 4.068 4.068-4.068ZM877.478 156.775l-4.068-4.068-4.068 4.068 4.068 4.068 4.068-4.068ZM928.616 156.775l-4.068-4.068-4.068 4.068 4.068 4.068 4.068-4.068ZM8.136 207.912l-4.068-4.068L0 207.912l4.068 4.068 4.068-4.068ZM59.274 207.912l-4.068-4.068-4.068 4.068 4.068 4.068 4.068-4.068ZM110.411 207.912l-4.068-4.068-4.068 4.068 4.068 4.068 4.068-4.068ZM161.549 207.912l-4.068-4.068-4.068 4.068 4.068 4.068 4.068-4.068ZM212.687 207.912l-4.068-4.068-4.068 4.068 4.068 4.068 4.068-4.068ZM263.825 207.912l-4.068-4.068-4.068 4.068 4.068 4.068 4.068-4.068ZM314.963 207.912l-4.068-4.068-4.068 4.068 4.068 4.068 4.068-4.068ZM366.1 207.912l-4.068-4.068-4.068 4.068 4.068 4.068 4.068-4.068ZM417.238 207.912l-4.068-4.068-4.068 4.068 4.068 4.068 4.068-4.068ZM468.376 207.912l-4.068-4.068-4.068 4.068 4.068 4.068 4.068-4.068ZM519.513 207.912l-4.068-4.068-4.067 4.068 4.067 4.068 4.068-4.068ZM570.651 207.912l-4.068-4.068-4.067 4.068 4.067 4.068 4.068-4.068ZM621.789 207.912l-4.068-4.068-4.068 4.068 4.068 4.068 4.068-4.068ZM672.927 207.912l-4.068-4.068-4.068 4.068 4.068 4.068 4.068-4.068ZM724.065 207.912l-4.068-4.068-4.068 4.068 4.068 4.068 4.068-4.068ZM775.202 207.912l-4.068-4.068-4.068 4.068 4.068 4.068 4.068-4.068ZM826.34 207.912l-4.068-4.068-4.068 4.068 4.068 4.068 4.068-4.068ZM877.478 207.912l-4.068-4.068-4.068 4.068 4.068 4.068 4.068-4.068ZM928.616 207.912l-4.068-4.068-4.068 4.068 4.068 4.068 4.068-4.068ZM8.136 259.05l-4.068-4.068L0 259.05l4.068 4.068 4.068-4.068ZM59.274 259.05l-4.068-4.068-4.068 4.068 4.068 4.068 4.068-4.068ZM110.411 259.05l-4.068-4.068-4.068 4.068 4.068 4.068 4.068-4.068ZM161.549 259.05l-4.068-4.068-4.068 4.068 4.068 4.068 4.068-4.068ZM212.687 259.05l-4.068-4.068-4.068 4.068 4.068 4.068 4.068-4.068ZM263.825 259.05l-4.068-4.068-4.068 4.068 4.068 4.068 4.068-4.068ZM314.963 259.05l-4.068-4.068-4.068 4.068 4.068 4.068 4.068-4.068ZM366.1 259.05l-4.068-4.068-4.068 4.068 4.068 4.068 4.068-4.068ZM417.238 259.05l-4.068-4.068-4.068 4.068 4.068 4.068 4.068-4.068ZM468.376 259.05l-4.068-4.068-4.068 4.068 4.068 4.068 4.068-4.068ZM519.513 259.05l-4.068-4.068-4.067 4.068 4.067 4.068 4.068-4.068ZM570.651 259.05l-4.068-4.068-4.067 4.068 4.067 4.068 4.068-4.068ZM621.789 259.05l-4.068-4.068-4.068 4.068 4.068 4.068 4.068-4.068ZM672.927 259.05l-4.068-4.068-4.068 4.068 4.068 4.068 4.068-4.068ZM724.065 259.05l-4.068-4.068-4.068 4.068 4.068 4.068 4.068-4.068ZM775.202 259.05l-4.068-4.068-4.068 4.068 4.068 4.068 4.068-4.068ZM826.34 259.05l-4.068-4.068-4.068 4.068 4.068 4.068 4.068-4.068ZM877.478 259.05l-4.068-4.068-4.068 4.068 4.068 4.068 4.068-4.068ZM928.616 259.05l-4.068-4.068-4.068 4.068 4.068 4.068 4.068-4.068ZM8.136 310.188l-4.068-4.068L0 310.188l4.068 4.068 4.068-4.068ZM59.274 310.188l-4.068-4.068-4.068 4.068 4.068 4.068 4.068-4.068ZM110.411 310.188l-4.068-4.068-4.068 4.068 4.068 4.068 4.068-4.068ZM161.549 310.188l-4.068-4.068-4.068 4.068 4.068 4.068 4.068-4.068ZM212.687 310.188l-4.068-4.068-4.068 4.068 4.068 4.068 4.068-4.068ZM263.825 310.188l-4.068-4.068-4.068 4.068 4.068 4.068 4.068-4.068ZM314.963 310.188l-4.068-4.068-4.068 4.068 4.068 4.068 4.068-4.068ZM366.1 310.188l-4.068-4.068-4.068 4.068 4.068 4.068 4.068-4.068ZM417.238 310.188l-4.068-4.068-4.068 4.068 4.068 4.068 4.068-4.068ZM468.376 310.188l-4.068-4.068-4.068 4.068 4.068 4.068 4.068-4.068ZM519.513 310.188l-4.068-4.068-4.067 4.068 4.067 4.068 4.068-4.068ZM570.651 310.188l-4.068-4.068-4.067 4.068 4.067 4.068 4.068-4.068ZM621.789 310.188l-4.068-4.068-4.068 4.068 4.068 4.068 4.068-4.068ZM672.927 310.188l-4.068-4.068-4.068 4.068 4.068 4.068 4.068-4.068ZM724.065 310.188l-4.068-4.068-4.068 4.068 4.068 4.068 4.068-4.068ZM775.202 310.188l-4.068-4.068-4.068 4.068 4.068 4.068 4.068-4.068ZM826.34 310.188l-4.068-4.068-4.068 4.068 4.068 4.068 4.068-4.068ZM877.478 310.188l-4.068-4.068-4.068 4.068 4.068 4.068 4.068-4.068ZM928.616 310.188l-4.068-4.068-4.068 4.068 4.068 4.068 4.068-4.068ZM8.136 361.325l-4.068-4.068L0 361.325l4.068 4.068 4.068-4.068ZM59.274 361.325l-4.068-4.068-4.068 4.068 4.068 4.068 4.068-4.068ZM110.411 361.325l-4.068-4.068-4.068 4.068 4.068 4.068 4.068-4.068ZM161.549 361.325l-4.068-4.068-4.068 4.068 4.068 4.068 4.068-4.068ZM212.687 361.325l-4.068-4.068-4.068 4.068 4.068 4.068 4.068-4.068ZM263.825 361.325l-4.068-4.068-4.068 4.068 4.068 4.068 4.068-4.068ZM314.963 361.325l-4.068-4.068-4.068 4.068 4.068 4.068 4.068-4.068ZM366.1 361.325l-4.068-4.068-4.068 4.068 4.068 4.068 4.068-4.068ZM417.238 361.325l-4.068-4.068-4.068 4.068 4.068 4.068 4.068-4.068ZM468.376 361.325l-4.068-4.068-4.068 4.068 4.068 4.068 4.068-4.068ZM519.513 361.325l-4.068-4.068-4.067 4.068 4.067 4.068 4.068-4.068ZM570.651 361.325l-4.068-4.068-4.067 4.068 4.067 4.068 4.068-4.068ZM621.789 361.325l-4.068-4.068-4.068 4.068 4.068 4.068 4.068-4.068ZM672.927 361.325l-4.068-4.068-4.068 4.068 4.068 4.068 4.068-4.068ZM724.065 361.325l-4.068-4.068-4.068 4.068 4.068 4.068 4.068-4.068ZM775.202 361.325l-4.068-4.068-4.068 4.068 4.068 4.068 4.068-4.068ZM826.34 361.325l-4.068-4.068-4.068 4.068 4.068 4.068 4.068-4.068ZM877.478 361.325l-4.068-4.068-4.068 4.068 4.068 4.068 4.068-4.068ZM928.616 361.325l-4.068-4.068-4.068 4.068 4.068 4.068 4.068-4.068ZM8.136 412.464l-4.068-4.068L0 412.464l4.068 4.068 4.068-4.068ZM59.274 412.464l-4.068-4.068-4.068 4.068 4.068 4.068 4.068-4.068ZM110.411 412.464l-4.068-4.068-4.068 4.068 4.068 4.068 4.068-4.068ZM161.549 412.464l-4.068-4.068-4.068 4.068 4.068 4.068 4.068-4.068ZM212.687 412.464l-4.068-4.068-4.068 4.068 4.068 4.068 4.068-4.068ZM263.825 412.464l-4.068-4.068-4.068 4.068 4.068 4.068 4.068-4.068ZM314.963 412.464l-4.068-4.068-4.068 4.068 4.068 4.068 4.068-4.068ZM366.1 412.464l-4.068-4.068-4.068 4.068 4.068 4.068 4.068-4.068ZM417.238 412.464l-4.068-4.068-4.068 4.068 4.068 4.068 4.068-4.068ZM468.376 412.464l-4.068-4.068-4.068 4.068 4.068 4.068 4.068-4.068ZM519.513 412.464l-4.068-4.068-4.067 4.068 4.067 4.068 4.068-4.068ZM570.651 412.464l-4.068-4.068-4.067 4.068 4.067 4.068 4.068-4.068ZM621.789 412.464l-4.068-4.068-4.068 4.068 4.068 4.068 4.068-4.068ZM672.927 412.464l-4.068-4.068-4.068 4.068 4.068 4.068 4.068-4.068ZM724.065 412.464l-4.068-4.068-4.068 4.068 4.068 4.068 4.068-4.068ZM775.202 412.464l-4.068-4.068-4.068 4.068 4.068 4.068 4.068-4.068ZM826.34 412.464l-4.068-4.068-4.068 4.068 4.068 4.068 4.068-4.068ZM877.478 412.464l-4.068-4.068-4.068 4.068 4.068 4.068 4.068-4.068ZM928.616 412.464l-4.068-4.068-4.068 4.068 4.068 4.068 4.068-4.068ZM8.136 463.602l-4.068-4.068L0 463.602l4.068 4.068 4.068-4.068ZM59.274 463.602l-4.068-4.068-4.068 4.068 4.068 4.068 4.068-4.068ZM110.411 463.602l-4.068-4.068-4.068 4.068 4.068 4.068 4.068-4.068ZM161.549 463.602l-4.068-4.068-4.068 4.068 4.068 4.068 4.068-4.068ZM212.687 463.602l-4.068-4.068-4.068 4.068 4.068 4.068 4.068-4.068ZM263.825 463.602l-4.068-4.068-4.068 4.068 4.068 4.068 4.068-4.068ZM314.963 463.602l-4.068-4.068-4.068 4.068 4.068 4.068 4.068-4.068ZM366.1 463.602l-4.068-4.068-4.068 4.068 4.068 4.068 4.068-4.068ZM417.238 463.602l-4.068-4.068-4.068 4.068 4.068 4.068 4.068-4.068ZM468.376 463.602l-4.068-4.068-4.068 4.068 4.068 4.068 4.068-4.068ZM519.513 463.602l-4.068-4.068-4.067 4.068 4.067 4.068 4.068-4.068ZM570.651 463.602l-4.068-4.068-4.067 4.068 4.067 4.068 4.068-4.068ZM621.789 463.602l-4.068-4.068-4.068 4.068 4.068 4.068 4.068-4.068ZM672.927 463.602l-4.068-4.068-4.068 4.068 4.068 4.068 4.068-4.068ZM724.065 463.602l-4.068-4.068-4.068 4.068 4.068 4.068 4.068-4.068ZM775.202 463.602l-4.068-4.068-4.068 4.068 4.068 4.068 4.068-4.068ZM826.34 463.602l-4.068-4.068-4.068 4.068 4.068 4.068 4.068-4.068ZM877.478 463.602l-4.068-4.068-4.068 4.068 4.068 4.068 4.068-4.068ZM928.616 463.602l-4.068-4.068-4.068 4.068 4.068 4.068 4.068-4.068ZM8.136 514.739l-4.068-4.068L0 514.739l4.068 4.068 4.068-4.068ZM59.274 514.739l-4.068-4.068-4.068 4.068 4.068 4.068 4.068-4.068ZM110.411 514.739l-4.068-4.068-4.068 4.068 4.068 4.068 4.068-4.068ZM161.549 514.739l-4.068-4.068-4.068 4.068 4.068 4.068 4.068-4.068ZM212.687 514.739l-4.068-4.068-4.068 4.068 4.068 4.068 4.068-4.068ZM263.825 514.739l-4.068-4.068-4.068 4.068 4.068 4.068 4.068-4.068ZM314.963 514.739l-4.068-4.068-4.068 4.068 4.068 4.068 4.068-4.068ZM366.1 514.739l-4.068-4.068-4.068 4.068 4.068 4.068 4.068-4.068ZM417.238 514.739l-4.068-4.068-4.068 4.068 4.068 4.068 4.068-4.068ZM468.376 514.739l-4.068-4.068-4.068 4.068 4.068 4.068 4.068-4.068ZM519.513 514.739l-4.068-4.068-4.067 4.068 4.067 4.068 4.068-4.068ZM570.651 514.739l-4.068-4.068-4.067 4.068 4.067 4.068 4.068-4.068ZM621.789 514.739l-4.068-4.068-4.068 4.068 4.068 4.068 4.068-4.068ZM672.927 514.739l-4.068-4.068-4.068 4.068 4.068 4.068 4.068-4.068ZM724.065 514.739l-4.068-4.068-4.068 4.068 4.068 4.068 4.068-4.068ZM775.202 514.739l-4.068-4.068-4.068 4.068 4.068 4.068 4.068-4.068ZM826.34 514.739l-4.068-4.068-4.068 4.068 4.068 4.068 4.068-4.068ZM877.478 514.739l-4.068-4.068-4.068 4.068 4.068 4.068 4.068-4.068ZM928.616 514.739l-4.068-4.068-4.068 4.068 4.068 4.068 4.068-4.068ZM8.136 565.876l-4.068-4.067L0 565.876l4.068 4.068 4.068-4.068ZM59.274 565.876l-4.068-4.067-4.068 4.067 4.068 4.068 4.068-4.068ZM110.411 565.876l-4.068-4.067-4.068 4.067 4.068 4.068 4.068-4.068ZM161.549 565.876l-4.068-4.067-4.068 4.067 4.068 4.068 4.068-4.068ZM212.687 565.876l-4.068-4.067-4.068 4.067 4.068 4.068 4.068-4.068ZM263.825 565.876l-4.068-4.067-4.068 4.067 4.068 4.068 4.068-4.068ZM314.963 565.876l-4.068-4.067-4.068 4.067 4.068 4.068 4.068-4.068ZM366.1 565.876l-4.068-4.067-4.068 4.067 4.068 4.068 4.068-4.068ZM417.238 565.876l-4.068-4.067-4.068 4.067 4.068 4.068 4.068-4.068ZM468.376 565.876l-4.068-4.067-4.068 4.067 4.068 4.068 4.068-4.068ZM519.513 565.876l-4.068-4.067-4.067 4.067 4.067 4.068 4.068-4.068ZM570.651 565.876l-4.068-4.067-4.067 4.067 4.067 4.068 4.068-4.068ZM621.789 565.876l-4.068-4.067-4.068 4.067 4.068 4.068 4.068-4.068ZM672.927 565.876l-4.068-4.067-4.068 4.067 4.068 4.068 4.068-4.068ZM724.065 565.876l-4.068-4.067-4.068 4.067 4.068 4.068 4.068-4.068ZM775.202 565.876l-4.068-4.067-4.068 4.067 4.068 4.068 4.068-4.068ZM826.34 565.876l-4.068-4.067-4.068 4.067 4.068 4.068 4.068-4.068ZM877.478 565.876l-4.068-4.067-4.068 4.067 4.068 4.068 4.068-4.068ZM928.616 565.876l-4.068-4.067-4.068 4.067 4.068 4.068 4.068-4.068ZM8.136 617.015l-4.068-4.068L0 617.015l4.068 4.068 4.068-4.068ZM59.274 617.015l-4.068-4.068-4.068 4.068 4.068 4.068 4.068-4.068ZM110.411 617.015l-4.068-4.068-4.068 4.068 4.068 4.068 4.068-4.068ZM161.549 617.015l-4.068-4.068-4.068 4.068 4.068 4.068 4.068-4.068ZM212.687 617.015l-4.068-4.068-4.068 4.068 4.068 4.068 4.068-4.068ZM263.825 617.015l-4.068-4.068-4.068 4.068 4.068 4.068 4.068-4.068ZM314.963 617.015l-4.068-4.068-4.068 4.068 4.068 4.068 4.068-4.068ZM366.1 617.015l-4.068-4.068-4.068 4.068 4.068 4.068 4.068-4.068ZM417.238 617.015l-4.068-4.068-4.068 4.068 4.068 4.068 4.068-4.068ZM468.376 617.015l-4.068-4.068-4.068 4.068 4.068 4.068 4.068-4.068ZM519.513 617.015l-4.068-4.068-4.067 4.068 4.067 4.068 4.068-4.068ZM570.651 617.015l-4.068-4.068-4.067 4.068 4.067 4.068 4.068-4.068ZM621.789 617.015l-4.068-4.068-4.068 4.068 4.068 4.068 4.068-4.068ZM672.927 617.015l-4.068-4.068-4.068 4.068 4.068 4.068 4.068-4.068ZM724.065 617.015l-4.068-4.068-4.068 4.068 4.068 4.068 4.068-4.068ZM775.202 617.015l-4.068-4.068-4.068 4.068 4.068 4.068 4.068-4.068ZM826.34 617.015l-4.068-4.068-4.068 4.068 4.068 4.068 4.068-4.068ZM877.478 617.015l-4.068-4.068-4.068 4.068 4.068 4.068 4.068-4.068ZM928.616 617.015l-4.068-4.068-4.068 4.068 4.068 4.068 4.068-4.068ZM8.136 668.153l-4.068-4.068L0 668.153l4.068 4.068 4.068-4.068ZM59.274 668.153l-4.068-4.068-4.068 4.068 4.068 4.068 4.068-4.068ZM110.411 668.153l-4.068-4.068-4.068 4.068 4.068 4.068 4.068-4.068ZM161.549 668.153l-4.068-4.068-4.068 4.068 4.068 4.068 4.068-4.068ZM212.687 668.153l-4.068-4.068-4.068 4.068 4.068 4.068 4.068-4.068ZM263.825 668.153l-4.068-4.068-4.068 4.068 4.068 4.068 4.068-4.068ZM314.963 668.153l-4.068-4.068-4.068 4.068 4.068 4.068 4.068-4.068ZM366.1 668.153l-4.068-4.068-4.068 4.068 4.068 4.068 4.068-4.068ZM417.238 668.153l-4.068-4.068-4.068 4.068 4.068 4.068 4.068-4.068ZM468.376 668.153l-4.068-4.068-4.068 4.068 4.068 4.068 4.068-4.068ZM519.513 668.153l-4.068-4.068-4.067 4.068 4.067 4.068 4.068-4.068ZM570.651 668.153l-4.068-4.068-4.067 4.068 4.067 4.068 4.068-4.068ZM621.789 668.153l-4.068-4.068-4.068 4.068 4.068 4.068 4.068-4.068ZM672.927 668.153l-4.068-4.068-4.068 4.068 4.068 4.068 4.068-4.068ZM724.065 668.153l-4.068-4.068-4.068 4.068 4.068 4.068 4.068-4.068ZM775.202 668.153l-4.068-4.068-4.068 4.068 4.068 4.068 4.068-4.068ZM826.34 668.153l-4.068-4.068-4.068 4.068 4.068 4.068 4.068-4.068ZM877.478 668.153l-4.068-4.068-4.068 4.068 4.068 4.068 4.068-4.068ZM928.616 668.153l-4.068-4.068-4.068 4.068 4.068 4.068 4.068-4.068ZM8.136 719.29l-4.068-4.068L0 719.29l4.068 4.068 4.068-4.068ZM59.274 719.29l-4.068-4.068-4.068 4.068 4.068 4.068 4.068-4.068ZM110.411 719.29l-4.068-4.068-4.068 4.068 4.068 4.068 4.068-4.068ZM161.549 719.29l-4.068-4.068-4.068 4.068 4.068 4.068 4.068-4.068ZM212.687 719.29l-4.068-4.068-4.068 4.068 4.068 4.068 4.068-4.068ZM263.825 719.29l-4.068-4.068-4.068 4.068 4.068 4.068 4.068-4.068ZM314.963 719.29l-4.068-4.068-4.068 4.068 4.068 4.068 4.068-4.068ZM366.1 719.29l-4.068-4.068-4.068 4.068 4.068 4.068 4.068-4.068ZM417.238 719.29l-4.068-4.068-4.068 4.068 4.068 4.068 4.068-4.068ZM468.376 719.29l-4.068-4.068-4.068 4.068 4.068 4.068 4.068-4.068ZM519.513 719.29l-4.068-4.068-4.067 4.068 4.067 4.068 4.068-4.068ZM570.651 719.29l-4.068-4.068-4.067 4.068 4.067 4.068 4.068-4.068ZM621.789 719.29l-4.068-4.068-4.068 4.068 4.068 4.068 4.068-4.068ZM672.927 719.29l-4.068-4.068-4.068 4.068 4.068 4.068 4.068-4.068ZM724.065 719.29l-4.068-4.068-4.068 4.068 4.068 4.068 4.068-4.068ZM775.202 719.29l-4.068-4.068-4.068 4.068 4.068 4.068 4.068-4.068ZM826.34 719.29l-4.068-4.068-4.068 4.068 4.068 4.068 4.068-4.068ZM877.478 719.29l-4.068-4.068-4.068 4.068 4.068 4.068 4.068-4.068ZM928.616 719.29l-4.068-4.068-4.068 4.068 4.068 4.068 4.068-4.068ZM8.136 770.428l-4.068-4.068L0 770.428l4.068 4.068 4.068-4.068ZM59.274 770.428l-4.068-4.068-4.068 4.068 4.068 4.068 4.068-4.068ZM110.411 770.428l-4.068-4.068-4.068 4.068 4.068 4.068 4.068-4.068ZM161.549 770.428l-4.068-4.068-4.068 4.068 4.068 4.068 4.068-4.068ZM212.687 770.428l-4.068-4.068-4.068 4.068 4.068 4.068 4.068-4.068ZM263.825 770.428l-4.068-4.068-4.068 4.068 4.068 4.068 4.068-4.068ZM314.963 770.428l-4.068-4.068-4.068 4.068 4.068 4.068 4.068-4.068ZM366.1 770.428l-4.068-4.068-4.068 4.068 4.068 4.068 4.068-4.068ZM417.238 770.428l-4.068-4.068-4.068 4.068 4.068 4.068 4.068-4.068ZM468.376 770.428l-4.068-4.068-4.068 4.068 4.068 4.068 4.068-4.068ZM519.513 770.428l-4.068-4.068-4.067 4.068 4.067 4.068 4.068-4.068ZM570.651 770.428l-4.068-4.068-4.067 4.068 4.067 4.068 4.068-4.068ZM621.789 770.428l-4.068-4.068-4.068 4.068 4.068 4.068 4.068-4.068ZM672.927 770.428l-4.068-4.068-4.068 4.068 4.068 4.068 4.068-4.068ZM724.065 770.428l-4.068-4.068-4.068 4.068 4.068 4.068 4.068-4.068ZM775.202 770.428l-4.068-4.068-4.068 4.068 4.068 4.068 4.068-4.068ZM826.34 770.428l-4.068-4.068-4.068 4.068 4.068 4.068 4.068-4.068ZM877.478 770.428l-4.068-4.068-4.068 4.068 4.068 4.068 4.068-4.068ZM928.616 770.428l-4.068-4.068-4.068 4.068 4.068 4.068 4.068-4.068ZM8.136 821.566l-4.068-4.068L0 821.566l4.068 4.068 4.068-4.068ZM59.274 821.566l-4.068-4.068-4.068 4.068 4.068 4.068 4.068-4.068ZM110.411 821.566l-4.068-4.068-4.068 4.068 4.068 4.068 4.068-4.068ZM161.549 821.566l-4.068-4.068-4.068 4.068 4.068 4.068 4.068-4.068ZM212.687 821.566l-4.068-4.068-4.068 4.068 4.068 4.068 4.068-4.068ZM263.825 821.566l-4.068-4.068-4.068 4.068 4.068 4.068 4.068-4.068ZM314.963 821.566l-4.068-4.068-4.068 4.068 4.068 4.068 4.068-4.068ZM366.1 821.566l-4.068-4.068-4.068 4.068 4.068 4.068 4.068-4.068ZM417.238 821.566l-4.068-4.068-4.068 4.068 4.068 4.068 4.068-4.068ZM468.376 821.566l-4.068-4.068-4.068 4.068 4.068 4.068 4.068-4.068ZM519.513 821.566l-4.068-4.068-4.067 4.068 4.067 4.068 4.068-4.068ZM570.651 821.566l-4.068-4.068-4.067 4.068 4.067 4.068 4.068-4.068ZM621.789 821.566l-4.068-4.068-4.068 4.068 4.068 4.068 4.068-4.068ZM672.927 821.566l-4.068-4.068-4.068 4.068 4.068 4.068 4.068-4.068ZM724.065 821.566l-4.068-4.068-4.068 4.068 4.068 4.068 4.068-4.068ZM775.202 821.566l-4.068-4.068-4.068 4.068 4.068 4.068 4.068-4.068ZM826.34 821.566l-4.068-4.068-4.068 4.068 4.068 4.068 4.068-4.068ZM877.478 821.566l-4.068-4.068-4.068 4.068 4.068 4.068 4.068-4.068ZM928.616 821.566l-4.068-4.068-4.068 4.068 4.068 4.068 4.068-4.068ZM8.136 872.703l-4.068-4.068L0 872.703l4.068 4.068 4.068-4.068ZM59.274 872.703l-4.068-4.068-4.068 4.068 4.068 4.068 4.068-4.068ZM110.411 872.703l-4.068-4.068-4.068 4.068 4.068 4.068 4.068-4.068ZM161.549 872.703l-4.068-4.068-4.068 4.068 4.068 4.068 4.068-4.068ZM212.687 872.703l-4.068-4.068-4.068 4.068 4.068 4.068 4.068-4.068ZM263.825 872.703l-4.068-4.068-4.068 4.068 4.068 4.068 4.068-4.068ZM314.963 872.703l-4.068-4.068-4.068 4.068 4.068 4.068 4.068-4.068ZM366.1 872.703l-4.068-4.068-4.068 4.068 4.068 4.068 4.068-4.068ZM417.238 872.703l-4.068-4.068-4.068 4.068 4.068 4.068 4.068-4.068ZM468.376 872.703l-4.068-4.068-4.068 4.068 4.068 4.068 4.068-4.068ZM519.513 872.703l-4.068-4.068-4.067 4.068 4.067 4.068 4.068-4.068ZM570.651 872.703l-4.068-4.068-4.067 4.068 4.067 4.068 4.068-4.068ZM621.789 872.703l-4.068-4.068-4.068 4.068 4.068 4.068 4.068-4.068ZM672.927 872.703l-4.068-4.068-4.068 4.068 4.068 4.068 4.068-4.068ZM724.065 872.703l-4.068-4.068-4.068 4.068 4.068 4.068 4.068-4.068ZM775.202 872.703l-4.068-4.068-4.068 4.068 4.068 4.068 4.068-4.068ZM826.34 872.703l-4.068-4.068-4.068 4.068 4.068 4.068 4.068-4.068ZM877.478 872.703l-4.068-4.068-4.068 4.068 4.068 4.068 4.068-4.068ZM928.616 872.703l-4.068-4.068-4.068 4.068 4.068 4.068 4.068-4.068ZM8.136 923.842l-4.068-4.068L0 923.842l4.068 4.068 4.068-4.068ZM59.274 923.842l-4.068-4.068-4.068 4.068 4.068 4.068 4.068-4.068ZM110.411 923.842l-4.068-4.068-4.068 4.068 4.068 4.068 4.068-4.068ZM161.549 923.842l-4.068-4.068-4.068 4.068 4.068 4.068 4.068-4.068ZM212.687 923.842l-4.068-4.068-4.068 4.068 4.068 4.068 4.068-4.068ZM263.825 923.842l-4.068-4.068-4.068 4.068 4.068 4.068 4.068-4.068ZM314.963 923.842l-4.068-4.068-4.068 4.068 4.068 4.068 4.068-4.068ZM366.1 923.842l-4.068-4.068-4.068 4.068 4.068 4.068 4.068-4.068ZM417.238 923.842l-4.068-4.068-4.068 4.068 4.068 4.068 4.068-4.068ZM468.376 923.842l-4.068-4.068-4.068 4.068 4.068 4.068 4.068-4.068ZM519.513 923.842l-4.068-4.068-4.067 4.068 4.067 4.068 4.068-4.068ZM570.651 923.842l-4.068-4.068-4.067 4.068 4.067 4.068 4.068-4.068ZM621.789 923.842l-4.068-4.068-4.068 4.068 4.068 4.068 4.068-4.068ZM672.927 923.842l-4.068-4.068-4.068 4.068 4.068 4.068 4.068-4.068ZM724.065 923.842l-4.068-4.068-4.068 4.068 4.068 4.068 4.068-4.068ZM775.202 923.842l-4.068-4.068-4.068 4.068 4.068 4.068 4.068-4.068ZM826.34 923.842l-4.068-4.068-4.068 4.068 4.068 4.068 4.068-4.068ZM877.478 923.842l-4.068-4.068-4.068 4.068 4.068 4.068 4.068-4.068ZM928.616 923.842l-4.068-4.068-4.068 4.068 4.068 4.068 4.068-4.068Z"/><path fill="#fff" fill-opacity=".06" d="m519.52 3.361-4.068-4.068-4.068 4.068 4.068 4.068 4.068-4.068ZM570.658 3.361 566.59-.707l-4.068 4.068 4.068 4.068 4.068-4.068ZM621.796 3.361l-4.068-4.068-4.068 4.068 4.068 4.068 4.068-4.068ZM672.934 3.361l-4.068-4.068-4.068 4.068 4.068 4.068 4.068-4.068ZM724.072 3.361l-4.068-4.068-4.068 4.068 4.068 4.068 4.068-4.068ZM775.209 3.361l-4.068-4.068-4.068 4.068 4.068 4.068 4.068-4.068ZM826.347 3.361l-4.068-4.068-4.068 4.068 4.068 4.068 4.068-4.068ZM877.484 3.361l-4.067-4.068-4.068 4.068 4.068 4.068 4.067-4.068ZM928.622 3.361l-4.068-4.068-4.068 4.068 4.068 4.068 4.068-4.068ZM979.76 3.361l-4.067-4.068-4.068 4.068 4.068 4.068 4.067-4.068ZM1030.9 3.361l-4.07-4.068-4.07 4.068 4.07 4.068 4.07-4.068ZM1082.04 3.361l-4.07-4.068-4.07 4.068 4.07 4.068 4.07-4.068ZM1133.17 3.361l-4.06-4.068-4.07 4.068 4.07 4.068 4.06-4.068ZM1184.31 3.361l-4.07-4.068-4.06 4.068 4.06 4.068 4.07-4.068ZM1235.45 3.361l-4.07-4.068-4.07 4.068 4.07 4.068 4.07-4.068ZM1286.59 3.361l-4.07-4.068-4.07 4.068 4.07 4.068 4.07-4.068ZM1337.72 3.361l-4.06-4.068-4.07 4.068 4.07 4.068 4.06-4.068ZM1388.86 3.361l-4.07-4.068-4.06 4.068 4.06 4.068 4.07-4.068ZM1440 3.361l-4.07-4.068-4.07 4.068 4.07 4.068L1440 3.36ZM519.52 54.499l-4.068-4.068-4.068 4.068 4.068 4.068 4.068-4.068ZM570.658 54.499l-4.068-4.068-4.068 4.068 4.068 4.068 4.068-4.068ZM621.796 54.499l-4.068-4.068-4.068 4.068 4.068 4.068 4.068-4.068ZM672.934 54.499l-4.068-4.068-4.068 4.068 4.068 4.068 4.068-4.068ZM724.072 54.499l-4.068-4.068-4.068 4.068 4.068 4.068 4.068-4.068ZM775.209 54.499l-4.068-4.068-4.068 4.068 4.068 4.068 4.068-4.068ZM826.347 54.499l-4.068-4.068-4.068 4.068 4.068 4.068 4.068-4.068ZM877.484 54.499l-4.067-4.068-4.068 4.068 4.068 4.068 4.067-4.068ZM928.622 54.499l-4.068-4.068-4.068 4.068 4.068 4.068 4.068-4.068ZM979.76 54.499l-4.067-4.068-4.068 4.068 4.068 4.068 4.067-4.068ZM1030.9 54.499l-4.07-4.068-4.07 4.068 4.07 4.068 4.07-4.068ZM1082.04 54.499l-4.07-4.068-4.07 4.068 4.07 4.068 4.07-4.068ZM1133.17 54.499l-4.06-4.068-4.07 4.068 4.07 4.068 4.06-4.068ZM1184.31 54.499l-4.07-4.068-4.06 4.068 4.06 4.068 4.07-4.068ZM1235.45 54.499l-4.07-4.068-4.07 4.068 4.07 4.068 4.07-4.068ZM1286.59 54.499l-4.07-4.068-4.07 4.068 4.07 4.068 4.07-4.068ZM1337.72 54.499l-4.06-4.068-4.07 4.068 4.07 4.068 4.06-4.068ZM1388.86 54.499l-4.07-4.068-4.06 4.068 4.06 4.068 4.07-4.068ZM1440 54.499l-4.07-4.068-4.07 4.068 4.07 4.068 4.07-4.068ZM519.52 105.637l-4.068-4.068-4.068 4.068 4.068 4.068 4.068-4.068ZM570.658 105.637l-4.068-4.068-4.068 4.068 4.068 4.068 4.068-4.068ZM621.796 105.637l-4.068-4.068-4.068 4.068 4.068 4.068 4.068-4.068ZM672.934 105.637l-4.068-4.068-4.068 4.068 4.068 4.068 4.068-4.068ZM724.072 105.637l-4.068-4.068-4.068 4.068 4.068 4.068 4.068-4.068ZM775.209 105.637l-4.068-4.068-4.068 4.068 4.068 4.068 4.068-4.068ZM826.347 105.637l-4.068-4.068-4.068 4.068 4.068 4.068 4.068-4.068ZM877.484 105.637l-4.067-4.068-4.068 4.068 4.068 4.068 4.067-4.068ZM928.622 105.637l-4.068-4.068-4.068 4.068 4.068 4.068 4.068-4.068ZM979.76 105.637l-4.067-4.068-4.068 4.068 4.068 4.068 4.067-4.068ZM1030.9 105.637l-4.07-4.068-4.07 4.068 4.07 4.068 4.07-4.068ZM1082.04 105.637l-4.07-4.068-4.07 4.068 4.07 4.068 4.07-4.068ZM1133.17 105.637l-4.06-4.068-4.07 4.068 4.07 4.068 4.06-4.068ZM1184.31 105.637l-4.07-4.068-4.06 4.068 4.06 4.068 4.07-4.068ZM1235.45 105.637l-4.07-4.068-4.07 4.068 4.07 4.068 4.07-4.068ZM1286.59 105.637l-4.07-4.068-4.07 4.068 4.07 4.068 4.07-4.068ZM1337.72 105.637l-4.06-4.068-4.07 4.068 4.07 4.068 4.06-4.068ZM1388.86 105.637l-4.07-4.068-4.06 4.068 4.06 4.068 4.07-4.068ZM1440 105.637l-4.07-4.068-4.07 4.068 4.07 4.068 4.07-4.068ZM519.52 156.775l-4.068-4.068-4.068 4.068 4.068 4.068 4.068-4.068ZM570.658 156.775l-4.068-4.068-4.068 4.068 4.068 4.068 4.068-4.068ZM621.796 156.775l-4.068-4.068-4.068 4.068 4.068 4.068 4.068-4.068ZM672.934 156.775l-4.068-4.068-4.068 4.068 4.068 4.068 4.068-4.068ZM724.072 156.775l-4.068-4.068-4.068 4.068 4.068 4.068 4.068-4.068ZM775.209 156.775l-4.068-4.068-4.068 4.068 4.068 4.068 4.068-4.068ZM826.347 156.775l-4.068-4.068-4.068 4.068 4.068 4.068 4.068-4.068ZM877.484 156.775l-4.067-4.068-4.068 4.068 4.068 4.068 4.067-4.068ZM928.622 156.775l-4.068-4.068-4.068 4.068 4.068 4.068 4.068-4.068ZM979.76 156.775l-4.067-4.068-4.068 4.068 4.068 4.068 4.067-4.068ZM1030.9 156.775l-4.07-4.068-4.07 4.068 4.07 4.068 4.07-4.068ZM1082.04 156.775l-4.07-4.068-4.07 4.068 4.07 4.068 4.07-4.068ZM1133.17 156.775l-4.06-4.068-4.07 4.068 4.07 4.068 4.06-4.068ZM1184.31 156.775l-4.07-4.068-4.06 4.068 4.06 4.068 4.07-4.068ZM1235.45 156.775l-4.07-4.068-4.07 4.068 4.07 4.068 4.07-4.068ZM1286.59 156.775l-4.07-4.068-4.07 4.068 4.07 4.068 4.07-4.068ZM1337.72 156.775l-4.06-4.068-4.07 4.068 4.07 4.068 4.06-4.068ZM1388.86 156.775l-4.07-4.068-4.06 4.068 4.06 4.068 4.07-4.068ZM1440 156.775l-4.07-4.068-4.07 4.068 4.07 4.068 4.07-4.068ZM519.52 207.912l-4.068-4.068-4.068 4.068 4.068 4.068 4.068-4.068ZM570.658 207.912l-4.068-4.068-4.068 4.068 4.068 4.068 4.068-4.068ZM621.796 207.912l-4.068-4.068-4.068 4.068 4.068 4.068 4.068-4.068ZM672.934 207.912l-4.068-4.068-4.068 4.068 4.068 4.068 4.068-4.068ZM724.072 207.912l-4.068-4.068-4.068 4.068 4.068 4.068 4.068-4.068ZM775.209 207.912l-4.068-4.068-4.068 4.068 4.068 4.068 4.068-4.068ZM826.347 207.912l-4.068-4.068-4.068 4.068 4.068 4.068 4.068-4.068ZM877.484 207.912l-4.067-4.068-4.068 4.068 4.068 4.068 4.067-4.068ZM928.622 207.912l-4.068-4.068-4.068 4.068 4.068 4.068 4.068-4.068ZM979.76 207.912l-4.067-4.068-4.068 4.068 4.068 4.068 4.067-4.068ZM1030.9 207.912l-4.07-4.068-4.07 4.068 4.07 4.068 4.07-4.068ZM1082.04 207.912l-4.07-4.068-4.07 4.068 4.07 4.068 4.07-4.068ZM1133.17 207.912l-4.06-4.068-4.07 4.068 4.07 4.068 4.06-4.068ZM1184.31 207.912l-4.07-4.068-4.06 4.068 4.06 4.068 4.07-4.068ZM1235.45 207.912l-4.07-4.068-4.07 4.068 4.07 4.068 4.07-4.068ZM1286.59 207.912l-4.07-4.068-4.07 4.068 4.07 4.068 4.07-4.068ZM1337.72 207.912l-4.06-4.068-4.07 4.068 4.07 4.068 4.06-4.068ZM1388.86 207.912l-4.07-4.068-4.06 4.068 4.06 4.068 4.07-4.068ZM1440 207.912l-4.07-4.068-4.07 4.068 4.07 4.068 4.07-4.068ZM519.52 259.05l-4.068-4.068-4.068 4.068 4.068 4.068 4.068-4.068ZM570.658 259.05l-4.068-4.068-4.068 4.068 4.068 4.068 4.068-4.068ZM621.796 259.05l-4.068-4.068-4.068 4.068 4.068 4.068 4.068-4.068ZM672.934 259.05l-4.068-4.068-4.068 4.068 4.068 4.068 4.068-4.068ZM724.072 259.05l-4.068-4.068-4.068 4.068 4.068 4.068 4.068-4.068ZM775.209 259.05l-4.068-4.068-4.068 4.068 4.068 4.068 4.068-4.068ZM826.347 259.05l-4.068-4.068-4.068 4.068 4.068 4.068 4.068-4.068ZM877.484 259.05l-4.067-4.068-4.068 4.068 4.068 4.068 4.067-4.068ZM928.622 259.05l-4.068-4.068-4.068 4.068 4.068 4.068 4.068-4.068ZM979.76 259.05l-4.067-4.068-4.068 4.068 4.068 4.068 4.067-4.068ZM1030.9 259.05l-4.07-4.068-4.07 4.068 4.07 4.068 4.07-4.068ZM1082.04 259.05l-4.07-4.068-4.07 4.068 4.07 4.068 4.07-4.068ZM1133.17 259.05l-4.06-4.068-4.07 4.068 4.07 4.068 4.06-4.068ZM1184.31 259.05l-4.07-4.068-4.06 4.068 4.06 4.068 4.07-4.068ZM1235.45 259.05l-4.07-4.068-4.07 4.068 4.07 4.068 4.07-4.068ZM1286.59 259.05l-4.07-4.068-4.07 4.068 4.07 4.068 4.07-4.068ZM1337.72 259.05l-4.06-4.068-4.07 4.068 4.07 4.068 4.06-4.068ZM1388.86 259.05l-4.07-4.068-4.06 4.068 4.06 4.068 4.07-4.068ZM1440 259.05l-4.07-4.068-4.07 4.068 4.07 4.068 4.07-4.068ZM519.52 310.188l-4.068-4.068-4.068 4.068 4.068 4.068 4.068-4.068ZM570.658 310.188l-4.068-4.068-4.068 4.068 4.068 4.068 4.068-4.068ZM621.796 310.188l-4.068-4.068-4.068 4.068 4.068 4.068 4.068-4.068ZM672.934 310.188l-4.068-4.068-4.068 4.068 4.068 4.068 4.068-4.068ZM724.072 310.188l-4.068-4.068-4.068 4.068 4.068 4.068 4.068-4.068ZM775.209 310.188l-4.068-4.068-4.068 4.068 4.068 4.068 4.068-4.068ZM826.347 310.188l-4.068-4.068-4.068 4.068 4.068 4.068 4.068-4.068ZM877.484 310.188l-4.067-4.068-4.068 4.068 4.068 4.068 4.067-4.068ZM928.622 310.188l-4.068-4.068-4.068 4.068 4.068 4.068 4.068-4.068ZM979.76 310.188l-4.067-4.068-4.068 4.068 4.068 4.068 4.067-4.068ZM1030.9 310.188l-4.07-4.068-4.07 4.068 4.07 4.068 4.07-4.068ZM1082.04 310.188l-4.07-4.068-4.07 4.068 4.07 4.068 4.07-4.068ZM1133.17 310.188l-4.06-4.068-4.07 4.068 4.07 4.068 4.06-4.068ZM1184.31 310.188l-4.07-4.068-4.06 4.068 4.06 4.068 4.07-4.068ZM1235.45 310.188l-4.07-4.068-4.07 4.068 4.07 4.068 4.07-4.068ZM1286.59 310.188l-4.07-4.068-4.07 4.068 4.07 4.068 4.07-4.068ZM1337.72 310.188l-4.06-4.068-4.07 4.068 4.07 4.068 4.06-4.068ZM1388.86 310.188l-4.07-4.068-4.06 4.068 4.06 4.068 4.07-4.068ZM1440 310.188l-4.07-4.068-4.07 4.068 4.07 4.068 4.07-4.068ZM519.52 361.325l-4.068-4.068-4.068 4.068 4.068 4.068 4.068-4.068ZM570.658 361.325l-4.068-4.068-4.068 4.068 4.068 4.068 4.068-4.068ZM621.796 361.325l-4.068-4.068-4.068 4.068 4.068 4.068 4.068-4.068ZM672.934 361.325l-4.068-4.068-4.068 4.068 4.068 4.068 4.068-4.068ZM724.072 361.325l-4.068-4.068-4.068 4.068 4.068 4.068 4.068-4.068ZM775.209 361.325l-4.068-4.068-4.068 4.068 4.068 4.068 4.068-4.068ZM826.347 361.325l-4.068-4.068-4.068 4.068 4.068 4.068 4.068-4.068ZM877.484 361.325l-4.067-4.068-4.068 4.068 4.068 4.068 4.067-4.068ZM928.622 361.325l-4.068-4.068-4.068 4.068 4.068 4.068 4.068-4.068ZM979.76 361.325l-4.067-4.068-4.068 4.068 4.068 4.068 4.067-4.068ZM1030.9 361.325l-4.07-4.068-4.07 4.068 4.07 4.068 4.07-4.068ZM1082.04 361.325l-4.07-4.068-4.07 4.068 4.07 4.068 4.07-4.068ZM1133.17 361.325l-4.06-4.068-4.07 4.068 4.07 4.068 4.06-4.068ZM1184.31 361.325l-4.07-4.068-4.06 4.068 4.06 4.068 4.07-4.068ZM1235.45 361.325l-4.07-4.068-4.07 4.068 4.07 4.068 4.07-4.068ZM1286.59 361.325l-4.07-4.068-4.07 4.068 4.07 4.068 4.07-4.068ZM1337.72 361.325l-4.06-4.068-4.07 4.068 4.07 4.068 4.06-4.068ZM1388.86 361.325l-4.07-4.068-4.06 4.068 4.06 4.068 4.07-4.068ZM1440 361.325l-4.07-4.068-4.07 4.068 4.07 4.068 4.07-4.068ZM519.52 412.464l-4.068-4.068-4.068 4.068 4.068 4.068 4.068-4.068ZM570.658 412.464l-4.068-4.068-4.068 4.068 4.068 4.068 4.068-4.068ZM621.796 412.464l-4.068-4.068-4.068 4.068 4.068 4.068 4.068-4.068ZM672.934 412.464l-4.068-4.068-4.068 4.068 4.068 4.068 4.068-4.068ZM724.072 412.464l-4.068-4.068-4.068 4.068 4.068 4.068 4.068-4.068ZM775.209 412.464l-4.068-4.068-4.068 4.068 4.068 4.068 4.068-4.068ZM826.347 412.464l-4.068-4.068-4.068 4.068 4.068 4.068 4.068-4.068ZM877.484 412.464l-4.067-4.068-4.068 4.068 4.068 4.068 4.067-4.068ZM928.622 412.464l-4.068-4.068-4.068 4.068 4.068 4.068 4.068-4.068ZM979.76 412.464l-4.067-4.068-4.068 4.068 4.068 4.068 4.067-4.068ZM1030.9 412.464l-4.07-4.068-4.07 4.068 4.07 4.068 4.07-4.068ZM1082.04 412.464l-4.07-4.068-4.07 4.068 4.07 4.068 4.07-4.068ZM1133.17 412.464l-4.06-4.068-4.07 4.068 4.07 4.068 4.06-4.068ZM1184.31 412.464l-4.07-4.068-4.06 4.068 4.06 4.068 4.07-4.068ZM1235.45 412.464l-4.07-4.068-4.07 4.068 4.07 4.068 4.07-4.068ZM1286.59 412.464l-4.07-4.068-4.07 4.068 4.07 4.068 4.07-4.068ZM1337.72 412.464l-4.06-4.068-4.07 4.068 4.07 4.068 4.06-4.068ZM1388.86 412.464l-4.07-4.068-4.06 4.068 4.06 4.068 4.07-4.068ZM1440 412.464l-4.07-4.068-4.07 4.068 4.07 4.068 4.07-4.068ZM519.52 463.602l-4.068-4.068-4.068 4.068 4.068 4.068 4.068-4.068ZM570.658 463.602l-4.068-4.068-4.068 4.068 4.068 4.068 4.068-4.068ZM621.796 463.602l-4.068-4.068-4.068 4.068 4.068 4.068 4.068-4.068ZM672.934 463.602l-4.068-4.068-4.068 4.068 4.068 4.068 4.068-4.068ZM724.072 463.602l-4.068-4.068-4.068 4.068 4.068 4.068 4.068-4.068ZM775.209 463.602l-4.068-4.068-4.068 4.068 4.068 4.068 4.068-4.068ZM826.347 463.602l-4.068-4.068-4.068 4.068 4.068 4.068 4.068-4.068ZM877.484 463.602l-4.067-4.068-4.068 4.068 4.068 4.068 4.067-4.068ZM928.622 463.602l-4.068-4.068-4.068 4.068 4.068 4.068 4.068-4.068ZM979.76 463.602l-4.067-4.068-4.068 4.068 4.068 4.068 4.067-4.068ZM1030.9 463.602l-4.07-4.068-4.07 4.068 4.07 4.068 4.07-4.068ZM1082.04 463.602l-4.07-4.068-4.07 4.068 4.07 4.068 4.07-4.068ZM1133.17 463.602l-4.06-4.068-4.07 4.068 4.07 4.068 4.06-4.068ZM1184.31 463.602l-4.07-4.068-4.06 4.068 4.06 4.068 4.07-4.068ZM1235.45 463.602l-4.07-4.068-4.07 4.068 4.07 4.068 4.07-4.068ZM1286.59 463.602l-4.07-4.068-4.07 4.068 4.07 4.068 4.07-4.068ZM1337.72 463.602l-4.06-4.068-4.07 4.068 4.07 4.068 4.06-4.068ZM1388.86 463.602l-4.07-4.068-4.06 4.068 4.06 4.068 4.07-4.068ZM1440 463.602l-4.07-4.068-4.07 4.068 4.07 4.068 4.07-4.068ZM519.52 514.739l-4.068-4.068-4.068 4.068 4.068 4.068 4.068-4.068ZM570.658 514.739l-4.068-4.068-4.068 4.068 4.068 4.068 4.068-4.068ZM621.796 514.739l-4.068-4.068-4.068 4.068 4.068 4.068 4.068-4.068ZM672.934 514.739l-4.068-4.068-4.068 4.068 4.068 4.068 4.068-4.068ZM724.072 514.739l-4.068-4.068-4.068 4.068 4.068 4.068 4.068-4.068ZM775.209 514.739l-4.068-4.068-4.068 4.068 4.068 4.068 4.068-4.068ZM826.347 514.739l-4.068-4.068-4.068 4.068 4.068 4.068 4.068-4.068ZM877.484 514.739l-4.067-4.068-4.068 4.068 4.068 4.068 4.067-4.068ZM928.622 514.739l-4.068-4.068-4.068 4.068 4.068 4.068 4.068-4.068ZM979.76 514.739l-4.067-4.068-4.068 4.068 4.068 4.068 4.067-4.068ZM1030.9 514.739l-4.07-4.068-4.07 4.068 4.07 4.068 4.07-4.068ZM1082.04 514.739l-4.07-4.068-4.07 4.068 4.07 4.068 4.07-4.068ZM1133.17 514.739l-4.06-4.068-4.07 4.068 4.07 4.068 4.06-4.068ZM1184.31 514.739l-4.07-4.068-4.06 4.068 4.06 4.068 4.07-4.068ZM1235.45 514.739l-4.07-4.068-4.07 4.068 4.07 4.068 4.07-4.068ZM1286.59 514.739l-4.07-4.068-4.07 4.068 4.07 4.068 4.07-4.068ZM1337.72 514.739l-4.06-4.068-4.07 4.068 4.07 4.068 4.06-4.068ZM1388.86 514.739l-4.07-4.068-4.06 4.068 4.06 4.068 4.07-4.068ZM1440 514.739l-4.07-4.068-4.07 4.068 4.07 4.068 4.07-4.068ZM519.52 565.876l-4.068-4.068-4.068 4.068 4.068 4.068 4.068-4.068ZM570.658 565.876l-4.068-4.068-4.068 4.068 4.068 4.068 4.068-4.068ZM621.796 565.876l-4.068-4.068-4.068 4.068 4.068 4.068 4.068-4.068ZM672.934 565.876l-4.068-4.068-4.068 4.068 4.068 4.068 4.068-4.068ZM724.072 565.876l-4.068-4.068-4.068 4.068 4.068 4.068 4.068-4.068ZM775.209 565.876l-4.068-4.068-4.068 4.068 4.068 4.068 4.068-4.068ZM826.347 565.876l-4.068-4.068-4.068 4.068 4.068 4.068 4.068-4.068ZM877.484 565.876l-4.067-4.068-4.068 4.068 4.068 4.068 4.067-4.068ZM928.622 565.876l-4.068-4.068-4.068 4.068 4.068 4.068 4.068-4.068ZM979.76 565.876l-4.067-4.068-4.068 4.068 4.068 4.068 4.067-4.068ZM1030.9 565.876l-4.07-4.068-4.07 4.068 4.07 4.068 4.07-4.068ZM1082.04 565.876l-4.07-4.068-4.07 4.068 4.07 4.068 4.07-4.068ZM1133.17 565.876l-4.06-4.068-4.07 4.068 4.07 4.068 4.06-4.068ZM1184.31 565.876l-4.07-4.068-4.06 4.068 4.06 4.068 4.07-4.068ZM1235.45 565.876l-4.07-4.068-4.07 4.068 4.07 4.068 4.07-4.068ZM1286.59 565.876l-4.07-4.068-4.07 4.068 4.07 4.068 4.07-4.068ZM1337.72 565.876l-4.06-4.068-4.07 4.068 4.07 4.068 4.06-4.068ZM1388.86 565.876l-4.07-4.068-4.06 4.068 4.06 4.068 4.07-4.068ZM1440 565.876l-4.07-4.068-4.07 4.068 4.07 4.068 4.07-4.068ZM519.52 617.015l-4.068-4.068-4.068 4.068 4.068 4.068 4.068-4.068ZM570.658 617.015l-4.068-4.068-4.068 4.068 4.068 4.068 4.068-4.068ZM621.796 617.015l-4.068-4.068-4.068 4.068 4.068 4.068 4.068-4.068ZM672.934 617.015l-4.068-4.068-4.068 4.068 4.068 4.068 4.068-4.068ZM724.072 617.015l-4.068-4.068-4.068 4.068 4.068 4.068 4.068-4.068ZM775.209 617.015l-4.068-4.068-4.068 4.068 4.068 4.068 4.068-4.068ZM826.347 617.015l-4.068-4.068-4.068 4.068 4.068 4.068 4.068-4.068ZM877.484 617.015l-4.067-4.068-4.068 4.068 4.068 4.068 4.067-4.068ZM928.622 617.015l-4.068-4.068-4.068 4.068 4.068 4.068 4.068-4.068ZM979.76 617.015l-4.067-4.068-4.068 4.068 4.068 4.068 4.067-4.068ZM1030.9 617.015l-4.07-4.068-4.07 4.068 4.07 4.068 4.07-4.068ZM1082.04 617.015l-4.07-4.068-4.07 4.068 4.07 4.068 4.07-4.068ZM1133.17 617.015l-4.06-4.068-4.07 4.068 4.07 4.068 4.06-4.068ZM1184.31 617.015l-4.07-4.068-4.06 4.068 4.06 4.068 4.07-4.068ZM1235.45 617.015l-4.07-4.068-4.07 4.068 4.07 4.068 4.07-4.068ZM1286.59 617.015l-4.07-4.068-4.07 4.068 4.07 4.068 4.07-4.068ZM1337.72 617.015l-4.06-4.068-4.07 4.068 4.07 4.068 4.06-4.068ZM1388.86 617.015l-4.07-4.068-4.06 4.068 4.06 4.068 4.07-4.068ZM1440 617.015l-4.07-4.068-4.07 4.068 4.07 4.068 4.07-4.068ZM519.52 668.152l-4.068-4.068-4.068 4.068 4.068 4.068 4.068-4.068ZM570.658 668.152l-4.068-4.068-4.068 4.068 4.068 4.068 4.068-4.068ZM621.796 668.152l-4.068-4.068-4.068 4.068 4.068 4.068 4.068-4.068ZM672.934 668.152l-4.068-4.068-4.068 4.068 4.068 4.068 4.068-4.068ZM724.072 668.152l-4.068-4.068-4.068 4.068 4.068 4.068 4.068-4.068ZM775.209 668.152l-4.068-4.068-4.068 4.068 4.068 4.068 4.068-4.068ZM826.347 668.152l-4.068-4.068-4.068 4.068 4.068 4.068 4.068-4.068ZM877.484 668.152l-4.067-4.068-4.068 4.068 4.068 4.068 4.067-4.068ZM928.622 668.152l-4.068-4.068-4.068 4.068 4.068 4.068 4.068-4.068ZM979.76 668.152l-4.067-4.068-4.068 4.068 4.068 4.068 4.067-4.068ZM1030.9 668.152l-4.07-4.068-4.07 4.068 4.07 4.068 4.07-4.068ZM1082.04 668.152l-4.07-4.068-4.07 4.068 4.07 4.068 4.07-4.068ZM1133.17 668.152l-4.06-4.068-4.07 4.068 4.07 4.068 4.06-4.068ZM1184.31 668.152l-4.07-4.068-4.06 4.068 4.06 4.068 4.07-4.068ZM1235.45 668.152l-4.07-4.068-4.07 4.068 4.07 4.068 4.07-4.068ZM1286.59 668.152l-4.07-4.068-4.07 4.068 4.07 4.068 4.07-4.068ZM1337.72 668.152l-4.06-4.068-4.07 4.068 4.07 4.068 4.06-4.068ZM1388.86 668.152l-4.07-4.068-4.06 4.068 4.06 4.068 4.07-4.068ZM1440 668.152l-4.07-4.068-4.07 4.068 4.07 4.068 4.07-4.068ZM519.52 719.29l-4.068-4.068-4.068 4.068 4.068 4.068 4.068-4.068ZM570.658 719.29l-4.068-4.068-4.068 4.068 4.068 4.068 4.068-4.068ZM621.796 719.29l-4.068-4.068-4.068 4.068 4.068 4.068 4.068-4.068ZM672.934 719.29l-4.068-4.068-4.068 4.068 4.068 4.068 4.068-4.068ZM724.072 719.29l-4.068-4.068-4.068 4.068 4.068 4.068 4.068-4.068ZM775.209 719.29l-4.068-4.068-4.068 4.068 4.068 4.068 4.068-4.068ZM826.347 719.29l-4.068-4.068-4.068 4.068 4.068 4.068 4.068-4.068ZM877.484 719.29l-4.067-4.068-4.068 4.068 4.068 4.068 4.067-4.068ZM928.622 719.29l-4.068-4.068-4.068 4.068 4.068 4.068 4.068-4.068ZM979.76 719.29l-4.067-4.068-4.068 4.068 4.068 4.068 4.067-4.068ZM1030.9 719.29l-4.07-4.068-4.07 4.068 4.07 4.068 4.07-4.068ZM1082.04 719.29l-4.07-4.068-4.07 4.068 4.07 4.068 4.07-4.068ZM1133.17 719.29l-4.06-4.068-4.07 4.068 4.07 4.068 4.06-4.068ZM1184.31 719.29l-4.07-4.068-4.06 4.068 4.06 4.068 4.07-4.068ZM1235.45 719.29l-4.07-4.068-4.07 4.068 4.07 4.068 4.07-4.068ZM1286.59 719.29l-4.07-4.068-4.07 4.068 4.07 4.068 4.07-4.068ZM1337.72 719.29l-4.06-4.068-4.07 4.068 4.07 4.068 4.06-4.068ZM1388.86 719.29l-4.07-4.068-4.06 4.068 4.06 4.068 4.07-4.068ZM1440 719.29l-4.07-4.068-4.07 4.068 4.07 4.068 4.07-4.068ZM519.52 770.428l-4.068-4.068-4.068 4.068 4.068 4.068 4.068-4.068ZM570.658 770.428l-4.068-4.068-4.068 4.068 4.068 4.068 4.068-4.068ZM621.796 770.428l-4.068-4.068-4.068 4.068 4.068 4.068 4.068-4.068ZM672.934 770.428l-4.068-4.068-4.068 4.068 4.068 4.068 4.068-4.068ZM724.072 770.428l-4.068-4.068-4.068 4.068 4.068 4.068 4.068-4.068ZM775.209 770.428l-4.068-4.068-4.068 4.068 4.068 4.068 4.068-4.068ZM826.347 770.428l-4.068-4.068-4.068 4.068 4.068 4.068 4.068-4.068ZM877.484 770.428l-4.067-4.068-4.068 4.068 4.068 4.068 4.067-4.068ZM928.622 770.428l-4.068-4.068-4.068 4.068 4.068 4.068 4.068-4.068ZM979.76 770.428l-4.067-4.068-4.068 4.068 4.068 4.068 4.067-4.068ZM1030.9 770.428l-4.07-4.068-4.07 4.068 4.07 4.068 4.07-4.068ZM1082.04 770.428l-4.07-4.068-4.07 4.068 4.07 4.068 4.07-4.068ZM1133.17 770.428l-4.06-4.068-4.07 4.068 4.07 4.068 4.06-4.068ZM1184.31 770.428l-4.07-4.068-4.06 4.068 4.06 4.068 4.07-4.068ZM1235.45 770.428l-4.07-4.068-4.07 4.068 4.07 4.068 4.07-4.068ZM1286.59 770.428l-4.07-4.068-4.07 4.068 4.07 4.068 4.07-4.068ZM1337.72 770.428l-4.06-4.068-4.07 4.068 4.07 4.068 4.06-4.068ZM1388.86 770.428l-4.07-4.068-4.06 4.068 4.06 4.068 4.07-4.068ZM1440 770.428l-4.07-4.068-4.07 4.068 4.07 4.068 4.07-4.068ZM519.52 821.566l-4.068-4.068-4.068 4.068 4.068 4.068 4.068-4.068ZM570.658 821.566l-4.068-4.068-4.068 4.068 4.068 4.068 4.068-4.068ZM621.796 821.566l-4.068-4.068-4.068 4.068 4.068 4.068 4.068-4.068ZM672.934 821.566l-4.068-4.068-4.068 4.068 4.068 4.068 4.068-4.068ZM724.072 821.566l-4.068-4.068-4.068 4.068 4.068 4.068 4.068-4.068ZM775.209 821.566l-4.068-4.068-4.068 4.068 4.068 4.068 4.068-4.068ZM826.347 821.566l-4.068-4.068-4.068 4.068 4.068 4.068 4.068-4.068ZM877.484 821.566l-4.067-4.068-4.068 4.068 4.068 4.068 4.067-4.068ZM928.622 821.566l-4.068-4.068-4.068 4.068 4.068 4.068 4.068-4.068ZM979.76 821.566l-4.067-4.068-4.068 4.068 4.068 4.068 4.067-4.068ZM1030.9 821.566l-4.07-4.068-4.07 4.068 4.07 4.068 4.07-4.068ZM1082.04 821.566l-4.07-4.068-4.07 4.068 4.07 4.068 4.07-4.068ZM1133.17 821.566l-4.06-4.068-4.07 4.068 4.07 4.068 4.06-4.068ZM1184.31 821.566l-4.07-4.068-4.06 4.068 4.06 4.068 4.07-4.068ZM1235.45 821.566l-4.07-4.068-4.07 4.068 4.07 4.068 4.07-4.068ZM1286.59 821.566l-4.07-4.068-4.07 4.068 4.07 4.068 4.07-4.068ZM1337.72 821.566l-4.06-4.068-4.07 4.068 4.07 4.068 4.06-4.068ZM1388.86 821.566l-4.07-4.068-4.06 4.068 4.06 4.068 4.07-4.068ZM1440 821.566l-4.07-4.068-4.07 4.068 4.07 4.068 4.07-4.068ZM519.52 872.703l-4.068-4.068-4.068 4.068 4.068 4.068 4.068-4.068ZM570.658 872.703l-4.068-4.068-4.068 4.068 4.068 4.068 4.068-4.068ZM621.796 872.703l-4.068-4.068-4.068 4.068 4.068 4.068 4.068-4.068ZM672.934 872.703l-4.068-4.068-4.068 4.068 4.068 4.068 4.068-4.068ZM724.072 872.703l-4.068-4.068-4.068 4.068 4.068 4.068 4.068-4.068ZM775.209 872.703l-4.068-4.068-4.068 4.068 4.068 4.068 4.068-4.068ZM826.347 872.703l-4.068-4.068-4.068 4.068 4.068 4.068 4.068-4.068ZM877.484 872.703l-4.067-4.068-4.068 4.068 4.068 4.068 4.067-4.068ZM928.622 872.703l-4.068-4.068-4.068 4.068 4.068 4.068 4.068-4.068ZM979.76 872.703l-4.067-4.068-4.068 4.068 4.068 4.068 4.067-4.068ZM1030.9 872.703l-4.07-4.068-4.07 4.068 4.07 4.068 4.07-4.068ZM1082.04 872.703l-4.07-4.068-4.07 4.068 4.07 4.068 4.07-4.068ZM1133.17 872.703l-4.06-4.068-4.07 4.068 4.07 4.068 4.06-4.068ZM1184.31 872.703l-4.07-4.068-4.06 4.068 4.06 4.068 4.07-4.068ZM1235.45 872.703l-4.07-4.068-4.07 4.068 4.07 4.068 4.07-4.068ZM1286.59 872.703l-4.07-4.068-4.07 4.068 4.07 4.068 4.07-4.068ZM1337.72 872.703l-4.06-4.068-4.07 4.068 4.07 4.068 4.06-4.068ZM1388.86 872.703l-4.07-4.068-4.06 4.068 4.06 4.068 4.07-4.068ZM1440 872.703l-4.07-4.068-4.07 4.068 4.07 4.068 4.07-4.068ZM519.52 923.842l-4.068-4.068-4.068 4.068 4.068 4.068 4.068-4.068ZM570.658 923.842l-4.068-4.068-4.068 4.068 4.068 4.068 4.068-4.068ZM621.796 923.842l-4.068-4.068-4.068 4.068 4.068 4.068 4.068-4.068ZM672.934 923.842l-4.068-4.068-4.068 4.068 4.068 4.068 4.068-4.068ZM724.072 923.842l-4.068-4.068-4.068 4.068 4.068 4.068 4.068-4.068ZM775.209 923.842l-4.068-4.068-4.068 4.068 4.068 4.068 4.068-4.068ZM826.347 923.842l-4.068-4.068-4.068 4.068 4.068 4.068 4.068-4.068ZM877.484 923.842l-4.067-4.068-4.068 4.068 4.068 4.068 4.067-4.068ZM928.622 923.842l-4.068-4.068-4.068 4.068 4.068 4.068 4.068-4.068ZM979.76 923.842l-4.067-4.068-4.068 4.068 4.068 4.068 4.067-4.068ZM1030.9 923.842l-4.07-4.068-4.07 4.068 4.07 4.068 4.07-4.068ZM1082.04 923.842l-4.07-4.068-4.07 4.068 4.07 4.068 4.07-4.068ZM1133.17 923.842l-4.06-4.068-4.07 4.068 4.07 4.068 4.06-4.068ZM1184.31 923.842l-4.07-4.068-4.06 4.068 4.06 4.068 4.07-4.068ZM1235.45 923.842l-4.07-4.068-4.07 4.068 4.07 4.068 4.07-4.068ZM1286.59 923.842l-4.07-4.068-4.07 4.068 4.07 4.068 4.07-4.068ZM1337.72 923.842l-4.06-4.068-4.07 4.068 4.07 4.068 4.06-4.068ZM1388.86 923.842l-4.07-4.068-4.06 4.068 4.06 4.068 4.07-4.068ZM1440 923.842l-4.07-4.068-4.07 4.068 4.07 4.068 4.07-4.068Z"/></svg>