<svg xmlns="http://www.w3.org/2000/svg" width="148" height="40" fill="none"><g clip-path="url(#a)"><path fill="#fff" d="m57.189 16.704-2.37 10.586c-.074.328-.148.726-.148 1.054 0 1.6 1.313 2.256 2.954 2.256 1.642 0 3.175-1.091 4.196-2.075l2.625-11.821h4.632l-3.903 17.568h-4.633l.51-2.293c-1.386 1.309-3.282 2.728-5.874 2.728-3.393 0-5.508-1.784-5.508-4.512 0-.29.11-1.09.181-1.419l2.662-12.075h4.67l.006.003ZM68.863 34.272l5.364-24.262h4.633l-5.364 24.262h-4.633ZM79.005 30.888c0-.254.037-.763.148-1.201l1.97-8.983h-2.92l.913-4h2.917l1.058-4.803h4.669l-1.058 4.803h3.575l-.95 4h-3.574l-1.679 7.637a4.847 4.847 0 0 0-.073.727c0 .947.547 1.53 1.715 1.53.473 0 1.057-.182 1.275-.365l.182 3.708c-.695.472-1.79.763-2.92.763-3.139 0-5.254-1.201-5.254-3.819l.006.003ZM88.602 34.272l3.903-17.568h4.633l-3.904 17.568h-4.632ZM97.973 34.272l2.991-13.569h-2.918l.913-4h2.884l.218-.98c.765-3.347 2.809-6.075 6.784-6.075 1.86 0 3.464.51 4.632 1.71l-2.299 2.692c-.51-.51-1.094-.764-1.97-.764-1.424 0-2.152.874-2.518 2.51l-.218.91h3.612l-.913 4h-3.575l-2.991 13.569h-4.632v-.003ZM116.472 16.704l-2.37 10.586c-.074.328-.148.726-.148 1.054 0 1.6 1.313 2.256 2.954 2.256 1.642 0 3.176-1.091 4.196-2.075l2.625-11.821h4.633l-3.904 17.568h-4.633l.511-2.293c-1.387 1.309-3.283 2.728-5.874 2.728-3.394 0-5.509-1.784-5.509-4.512 0-.29.111-1.09.181-1.419l2.662-12.075h4.67l.006.003ZM140.036 34.272l2.336-10.476c.074-.328.182-.8.182-1.165 0-1.636-1.313-2.256-2.699-2.256-1.897 0-3.431 1.055-4.451 2.039l-2.625 11.858h-4.633l3.904-17.568h4.633l-.511 2.292c1.387-1.345 3.283-2.727 5.875-2.727 3.393 0 5.508 1.783 5.508 4.474 0 .328-.111 1.091-.181 1.456l-2.699 12.076h-4.633l-.006-.003ZM9.996 2.544A6.49 6.49 0 0 0 3.51 9.026c0 3.574 2.911 6.482 6.486 6.482 3.575 0 6.486-2.908 6.486-6.482 0-3.574-2.91-6.482-6.486-6.482Zm1.648.647c.987.278 1.872.8 2.585 1.495l-1.727 1.726a3.619 3.619 0 0 0-1.491-.861l.633-2.36Zm-3.295 0 .633 2.36a3.652 3.652 0 0 0-1.49.86L5.763 4.687a6.066 6.066 0 0 1 2.585-1.495Zm-4.236 7.33a5.982 5.982 0 0 1-.188-1.492c0-.515.065-1.014.188-1.492l2.36.631a3.61 3.61 0 0 0 0 1.722l-2.36.632Zm4.236 4.344a6.066 6.066 0 0 1-2.585-1.496l1.727-1.726c.415.399.925.696 1.49.862l-.632 2.36Zm2.314-2.918-.027.006c-.028.006-.053.012-.08.015l-.052.01c-.025.003-.047.009-.071.012l-.117.015c-.015 0-.03 0-.05.003-.03 0-.06.006-.091.006h-.043c-.047 0-.09.004-.136.004-.046 0-.092 0-.135-.004h-.043c-.03 0-.061-.003-.092-.006-.016 0-.031 0-.05-.003-.04-.003-.076-.009-.116-.015a.563.563 0 0 1-.07-.012c-.02 0-.035-.006-.053-.01l-.08-.015a.06.06 0 0 1-.025-.006c-.061-.015-.126-.03-.187-.05a3.001 3.001 0 0 1-1.884-1.651c-.016-.034-.028-.068-.044-.101a3.269 3.269 0 0 1-.104-.307v-.006l-.028-.104a2.9 2.9 0 0 1-.083-.699c0-.242.031-.475.083-.699.01-.033.019-.07.028-.104V8.22a3.6 3.6 0 0 1 .104-.306.945.945 0 0 1 .044-.099 3.094 3.094 0 0 1 .676-.956 2.959 2.959 0 0 1 1.423-.754c.028-.006.052-.012.08-.015l.052-.01c.025-.002.046-.008.07-.011.04-.007.078-.01.118-.016.015 0 .03 0 .046-.003.03 0 .061-.006.092-.006h.043c.046 0 .09-.003.135-.003.046 0 .092 0 .136.003h.043c.03 0 .061.003.092.006a1.347 1.347 0 0 1 .234.03c.018 0 .033.007.052.01l.08.015c.009 0 .018.003.027.006.062.016.123.031.185.05a3.002 3.002 0 0 1 1.497 1.014c.089.11.169.23.242.352.056.092.105.187.148.288l.043.102c.04.1.074.202.105.306v.003l.027.104c.056.224.083.457.083.7 0 .241-.03.474-.083.698l-.027.104v.006a3.071 3.071 0 0 1-.296.696 3.022 3.022 0 0 1-.528.668 2.97 2.97 0 0 1-1.393.748v-.003Zm.98 2.918-.632-2.36a3.653 3.653 0 0 0 1.49-.862l1.728 1.726a6.066 6.066 0 0 1-2.585 1.496Zm4.421-5.836a5.98 5.98 0 0 1-.187 1.493l-2.361-.632a3.612 3.612 0 0 0 0-1.722l2.36-.631c.124.478.188.977.188 1.492ZM10 7.016S8.306 8.25 8.34 9.238c.028.843.889 1.143 1.436.655l-.48 1.15h1.414l-.48-1.15c.557.479 1.464.203 1.436-.655C11.632 8.208 10 7.016 10 7.016Zm2.954-2.008a.245.245 0 0 0 .013-.046V4.95c0-.016.006-.03.006-.046v-.117c0-.009 0-.018-.003-.027 0-.006 0-.012-.003-.022 0-.009-.003-.015-.006-.024a.177.177 0 0 0-.013-.037.023.023 0 0 0-.006-.012.53.53 0 0 0-.341-.313.529.529 0 0 0-.649.337c0 .01-.006.016-.009.025a.531.531 0 1 0 1.018.297l-.007-.003ZM1.466 7.978l1.672-1.002-.344-.573-.9.539c.94-3.626 4.284-6.27 8.1-6.27.088 0 .18 0 .27.002l.021-.668A9.093 9.093 0 0 0 9.993 0C5.828 0 2.18 2.92 1.211 6.905L.575 5.848 0 6.19l1.005 1.674a.331.331 0 0 0 .286.162c.058 0 .12-.015.172-.046l.003-.003Z"/><path fill="#FFC500" d="M45.893 10.491H17.902a8.5 8.5 0 0 1-9.443 6.434l-3.8 17.816C4.043 37.643 5.9 40 8.813 40H39.6c2.911 0 5.776-2.355 6.394-5.26l4.048-18.993c.618-2.903-1.238-5.26-4.152-5.26l.003.003Zm-4.04 11.68-2.661 12.076h-4.67l2.37-10.62c.037-.217.145-.726.145-1.164 0-1.346-1.168-2.109-2.518-2.109-1.423 0-2.772 1.018-3.685 2.038L28.243 34.25h-4.67l2.37-10.62c.074-.364.181-.8.181-1.271-.036-1.128-.95-2.002-2.59-2.002-1.387 0-2.736 1.055-3.612 2.038l-2.626 11.859h-4.632l3.904-17.568H21.2l-.51 2.292c.984-1.054 2.773-2.728 5.364-2.728 3.464 0 4.85 2.51 4.85 3.166v.074c1.387-1.71 3.394-3.237 6.093-3.237s5.035 1.6 5.035 4.475c0 .472-.11 1.165-.181 1.456l.003-.012ZM93.016 12.447c0-2.002 1.715-3.13 3.101-3.13 1.46 0 2.518 1.055 2.518 2.363 0 2.002-1.716 3.13-3.139 3.13-1.423 0-2.48-1.055-2.48-2.363Z"/></g><defs><clipPath id="a"><path fill="#fff" d="M0 0h147.556v40H0z"/></clipPath></defs></svg>