<svg xmlns="http://www.w3.org/2000/svg" width="24" height="24" fill="none"><path fill="#fff" d="M17.483 12.024c.036 0 .064.014.086.043.021.022.029.05.021.086l-.086.69a.188.188 0 0 1-.053.097.117.117 0 0 1-.087.032h-1.379c-.028 0-.05.018-.064.054l-.172 1.422a.187.187 0 0 1-.054.097.116.116 0 0 1-.087.032h-.667a.117.117 0 0 1-.087-.032.117.117 0 0 1-.021-.097l.172-1.422c0-.036-.014-.054-.043-.054h-1.379c-.079 0-.118-.043-.118-.13l.086-.689a.164.164 0 0 1 .043-.086.134.134 0 0 1 .097-.043h1.379c.043 0 .064-.018.064-.054l.173-1.422a.165.165 0 0 1 .043-.086.134.134 0 0 1 .097-.043h.668c.036 0 .064.014.086.043.021.022.029.05.021.086l-.172 1.422c0 .036.014.054.043.054h1.39ZM12.162 11.884c-.036.029-.04.054-.01.076.222.129.373.337.452.624.065.216.097.46.097.733 0 .18-.007.316-.022.41-.043.373-.14.707-.29 1.001a2.292 2.292 0 0 1-.765.916c-.324.215-.69.323-1.1.323-.401 0-.739-.108-1.012-.323-.273-.216-.452-.518-.538-.905a2.583 2.583 0 0 1-.054-.582 3.288 3.288 0 0 1 .345-1.519c.136-.287.348-.51.635-.668.029-.021.032-.043.01-.064-.215-.151-.369-.36-.462-.625a2.211 2.211 0 0 1-.097-.679c0-.158.007-.276.021-.355.043-.41.155-.758.334-1.045.18-.309.424-.55.733-.722.316-.18.664-.27 1.045-.27.373 0 .693.087.958.26.273.165.463.405.571.721.08.216.119.453.119.711 0 .072-.007.187-.022.345-.05.395-.161.732-.334 1.012a1.766 1.766 0 0 1-.614.625ZM10.686 9.86c-.071.13-.118.294-.14.496-.007.05-.01.125-.01.226 0 .15.014.28.043.388.028.15.086.269.172.355.086.086.198.13.334.13.287 0 .506-.173.657-.518a1.94 1.94 0 0 0 .151-.581 2.29 2.29 0 0 0 .021-.248c0-.122-.017-.237-.053-.345a.575.575 0 0 0-.184-.345.452.452 0 0 0-.333-.129c-.252 0-.45.14-.593.42l-.064.151Zm.68 4.373c.057-.186.096-.377.118-.57.021-.13.032-.248.032-.356 0-.122-.01-.237-.032-.345a.661.661 0 0 0-.173-.398.431.431 0 0 0-.344-.151c-.151 0-.284.05-.399.15-.108.101-.194.245-.258.432-.087.2-.14.416-.162.646a2.877 2.877 0 0 0-.022.614c.015.201.069.36.162.474a.461.461 0 0 0 .366.162.608.608 0 0 0 .431-.173c.13-.122.223-.284.28-.485ZM7.46 8.373a.461.461 0 0 1 .16-.032h1.003c.035 0 .064.014.086.043.021.021.028.05.021.086l-.894 7.282a.188.188 0 0 1-.054.097.117.117 0 0 1-.086.032h-.959a.117.117 0 0 1-.086-.032c-.021-.029-.028-.061-.021-.097l.743-6.075c0-.044-.014-.061-.043-.054l-.883.172h-.033c-.071 0-.104-.04-.097-.118l.054-.722a.173.173 0 0 1 .108-.151l.98-.43Z"/><circle cx="12" cy="12" r="11.4" stroke="#fff" stroke-width="1.2"/></svg>