<svg xmlns="http://www.w3.org/2000/svg" width="52" height="24" fill="none"><path fill="#fff" d="M6.364 13.018c-.008.264-.06.996-.68 1.515-.672.562-1.813.69-2.638.69-.315 0-.638-.01-.953-.043-.647-.077-1.387-.239-1.787-.843-.246-.383-.272-.783-.28-1.242h2.118c0 .068-.025.374.179.553.11.102.374.204.732.204.06 0 .527-.008.8-.213.314-.238.28-.697.28-.782 0-.247.009-.485.009-.723-.102.161-.11.178-.204.246-.35.281-.885.35-1.31.35-.622 0-1.15-.12-1.652-.503C.553 11.895 0 11.206 0 9.904c0-.28.026-1.404.749-2.17.51-.544 1.293-.748 2.016-.74.17 0 .826 0 1.31.383.103.077.162.136.307.332l-.009-.553H6.39l-.008 5.53c0 .12 0 .222-.018.332Zm-2.74-4.314a.828.828 0 0 0-.416-.093.967.967 0 0 0-.417.093c-.332.162-.553.528-.553 1.268 0 .494.11.8.255.962.077.093.17.144.28.196a.96.96 0 0 0 .375.067c.094 0 .247 0 .443-.093.468-.204.519-.783.519-1.225 0-.417-.043-.953-.485-1.175Zm7.233 4.323v-.451c-.093.068-.204.162-.434.272-.247.128-.783.315-1.514.315-.145 0-.545 0-.936-.145-.758-.297-1.166-.953-1.166-1.744 0-.315.068-1.02.808-1.514.485-.324 1.106-.409 1.676-.485.332-.043.681-.094 1.005-.154.144-.034.306-.068.45-.11 0-.026 0-.179-.034-.272-.068-.239-.238-.409-.757-.409-.17 0-.28.026-.34.034-.366.094-.4.392-.434.52l-2.187.05c.026-.127.06-.238.077-.349.06-.23.178-.63.646-.995.468-.358 1.175-.613 2.442-.604.92 0 2.161.153 2.612 1.097.128.264.17.494.17 1.038l-.008 3.191c0 .426.06.52.204.723l-2.28-.008Zm-1.004-2.45c-.247.059-.604.136-.783.357a.46.46 0 0 0-.102.272c0 .179.145.451.579.451.204 0 .383-.068.57-.162.655-.348.62-.927.62-1.2-.297.111-.586.196-.884.281Zm14.09 2.475.009-3.7c0-.367 0-.682-.11-1.022-.281-.86-1.013-1.106-1.311-1.191-.349-.102-.621-.094-.766-.094-.953-.017-1.438.358-1.71.638a1.316 1.316 0 0 0-.306.443c-.128-.23-.205-.366-.29-.451-.561-.638-1.54-.638-1.744-.638-.8 0-1.293.306-1.532.527-.093.094-.178.205-.314.443v-.834h-2.255l-.009 5.862h2.34l.009-3.182c0-.179.034-.298.06-.366.161-.485.646-.544.808-.544.178 0 .646.06.782.553.035.136.035.23.035.366l-.018 3.173h2.332l.008-3.122c0-.145 0-.264.034-.4.145-.52.639-.562.817-.562.885 0 .817.792.817 1.021l-.009 3.063 2.323.017Zm5.752-.195c-.4.238-.86.349-1.327.349-.596 0-1.021-.196-1.225-.332-.102-.077-.17-.162-.247-.247v.434H24.64l.009-7.99h2.323l.008 2.536c.102-.102.179-.17.306-.264.34-.23.758-.315 1.175-.315.723 0 1.335.256 1.82.783.35.383.732 1.021.732 2.195.009.332-.017 2.06-1.319 2.85Zm-1.216-3.83a.793.793 0 0 0-.647-.34.844.844 0 0 0-.494.17c-.374.307-.417.817-.417 1.26 0 .408.043.953.383 1.225a.82.82 0 0 0 .52.179.872.872 0 0 0 .586-.247c.196-.204.315-.561.315-1.157 0-.366-.034-.783-.247-1.09Zm5.283 4.034.017-7.99h-2.34l-.008 7.99h2.331Zm.707-6.433V5.08H36.8v1.548h-2.331Zm-.017 6.441.008-5.862h2.331l-.008 5.862h-2.331Zm9.3.009.008-3.701c0-.417-.034-.621-.076-.817-.094-.383-.281-.766-.588-1.021-.553-.477-1.276-.485-1.489-.485-.595 0-1.225.153-1.65.587-.11.11-.136.136-.281.349v-.783H37.48l-.009 5.862h2.323l.008-3.122c0-.247-.008-.962.851-.962.528 0 .698.281.758.485.034.136.034.264.034.4l-.009 3.2 2.315.008Zm6.832.008c-.009.264-.06.996-.68 1.515-.664.562-1.813.69-2.638.69-.315 0-.639-.01-.953-.043-.647-.077-1.396-.239-1.787-.843-.247-.383-.272-.782-.28-1.242h2.118c0 .068-.026.374.178.553.111.102.375.204.732.204.06 0 .528-.008.8-.212.315-.239.28-.698.28-.783 0-.247.01-.485.01-.723-.103.161-.111.178-.205.246-.349.281-.885.35-1.31.35-.621 0-1.157-.111-1.651-.503-.425-.332-.979-1.02-.979-2.323 0-.28.026-1.404.75-2.17.51-.544 1.293-.748 2.016-.74.17 0 .825 0 1.31.383.102.077.162.136.306.332l-.008-.553h2.016l-.008 5.53c0 .12 0 .222-.017.332Zm-2.74-4.313a.828.828 0 0 0-.417-.094.967.967 0 0 0-.417.094c-.331.161-.553.527-.553 1.267 0 .494.11.8.256.962.076.093.17.144.28.195a.959.959 0 0 0 .375.069c.093 0 .246 0 .442-.094.468-.204.52-.783.52-1.225 0-.409-.043-.953-.486-1.174ZM11.887 21.91c.63 0 1.276-.102 1.472-.12V20.2c-.23.042-.281.042-.417.042-.613 0-.647-.374-.647-.612l.043-2.255h1.02v-1.268h-.995l.017-1.846h-2.34l-.034 1.838H9.19v1.267h.8l-.042 2.842c0 .204.008.417.068.63.178.595.638 1.063 1.872 1.072Zm10.848-2.578s0 .272.051.45c.077.23.306.656.928.647.357 0 .553-.127.663-.22.239-.197.35-.452.4-.528l1.906.808c-.06.094-.128.213-.28.391a3.582 3.582 0 0 1-1.073.834c-.28.136-.893.375-1.727.375-.485 0-.953-.069-1.387-.247-1.208-.502-1.855-1.676-1.846-2.953 0-1.208.561-1.957.893-2.28.842-.8 2-.86 2.331-.86.4 0 1.592.06 2.442.98.281.306.494.688.622 1.088.153.51.17 1.004.17 1.54l-4.093-.025Zm1.668-1.557c-.153-.485-.587-.553-.766-.553a.885.885 0 0 0-.366.093c-.434.187-.485.664-.51.792h1.693c-.009-.069-.009-.188-.051-.332Zm6.628.042c.11 0 .23.009.34.026v-1.966c-.612 0-1.106.017-1.625.383a1.75 1.75 0 0 0-.314.247v-.51h-2.238l-.009 5.862H29.5l.008-2.757c0-.204 0-.366.068-.553.28-.8 1.276-.74 1.455-.732Zm4.382 4.05v-.45c-.093.067-.204.161-.434.272-.247.127-.783.314-1.514.314-.145 0-.545 0-.936-.144-.758-.298-1.166-.953-1.166-1.744 0-.315.068-1.021.808-1.515.485-.332 1.106-.408 1.676-.485.324-.042.681-.093 1.005-.153.144-.034.306-.068.45-.11 0-.026 0-.18-.034-.273-.068-.238-.238-.408-.757-.408-.17 0-.28.025-.34.034-.366.093-.4.391-.434.519l-2.187.05c.026-.127.06-.238.077-.348.06-.23.178-.63.646-.996.468-.357 1.175-.612 2.442-.604.92 0 2.161.153 2.612 1.098.128.264.17.502.17 1.038l-.008 3.19c0 .435.06.52.204.724l-2.28-.009Zm-1.004-2.459c-.247.06-.596.136-.783.358-.025.034-.102.136-.102.272 0 .179.145.451.579.451.204 0 .383-.068.57-.162.655-.349.62-.927.62-1.2a8.87 8.87 0 0 1-.884.281Zm7.564 2.612c-.17 0-.783 0-1.268-.331a3.177 3.177 0 0 1-.246-.213v2.519h-2.29l.01-7.99h2.271v.45c.11-.135.162-.178.23-.229.213-.17.655-.383 1.327-.383 1.83 0 2.553 1.498 2.553 3.123 0 1.66-.766 3.063-2.587 3.054Zm.043-4.152a.807.807 0 0 0-.621-.314.9.9 0 0 0-.451.11c-.477.255-.502.851-.502 1.31 0 .451.034 1.055.485 1.302a.772.772 0 0 0 .408.102.84.84 0 0 0 .451-.119c.417-.264.477-.825.477-1.25 0-.366-.026-.834-.247-1.14Zm9.053-1.838h-2.416c-.009.069-.885 3.82-.885 3.82l-.834-3.82H44.5l1.847 5.386c.093.264.178.511.178.596 0 .213-.161.28-.485.28-.23 0-.442-.025-.663-.033v1.659l.646.068c.196.026.4.009.587.009.579 0 1.03.008 1.498-.358.442-.366.647-.893.825-1.412l2.136-6.195Zm-31.167 1.226c-.094-.494-.324-.792-.477-.936-.417-.417-1.063-.587-1.625-.587-.85 0-1.378.323-1.608.544-.077.077-.136.136-.264.298l.009-2.714h-2.323l-.009 7.99h2.315l.008-4.178h2.068l-.009 4.177h1.966l.008-3.82a2.95 2.95 0 0 0-.06-.774ZM1.737 2.178c-.12.366-.4.604-.791.604a.769.769 0 0 1-.63-.306 1.054 1.054 0 0 1-.187-.63c0-.076 0-.263.085-.468A.763.763 0 0 1 .963.86a.73.73 0 0 1 .536.205c.204.195.28.476.29.748 0 .06 0 .205-.052.366ZM.963 1.047a.586.586 0 0 0-.332.102c-.145.11-.264.306-.264.689 0 .068-.008.434.238.638.06.043.162.11.34.11.273 0 .596-.17.596-.748.017-.604-.289-.791-.578-.791ZM3.626 2.74v-.953c0-.315.008-.46-.068-.604-.06-.128-.213-.315-.553-.315-.238 0-.375.093-.443.162-.085.085-.119.153-.127.204V.91h-.23v1.83h.23v-.8c0-.221.008-.374.025-.468a.57.57 0 0 1 .281-.349.657.657 0 0 1 .238-.05c.043 0 .145 0 .247.059.034.017.102.06.136.153.043.11.043.255.043.502v.953h.221Zm.766 0L4.4.034h-.23L4.163 2.74h.23ZM4.928.476V.128h.221v.348h-.221Zm0 2.264V.91h.221v1.83h-.221Zm2.187 0v-.953c0-.315.008-.46-.06-.604-.06-.128-.213-.315-.553-.315-.238 0-.374.093-.443.162-.085.085-.119.153-.127.204V.91h-.23v1.83h.23v-.8c0-.221.008-.374.025-.468a.586.586 0 0 1 .273-.349.657.657 0 0 1 .238-.05c.042 0 .145 0 .247.059.034.017.102.06.136.153.042.11.042.255.042.502v.953h.222Zm1.94-.238c-.103.119-.281.289-.656.289-.068 0-.246 0-.425-.094-.434-.23-.451-.766-.451-.885 0-.06 0-.212.06-.374a.815.815 0 0 1 .79-.57c.111 0 .375.025.588.264.145.161.238.425.238.646v.06H7.78c-.01.153.016.238.033.306.043.145.17.451.587.443.162 0 .417-.034.587-.383l.213.06a1.568 1.568 0 0 1-.145.238Zm-.681-1.43a.584.584 0 0 0-.52.315.871.871 0 0 0-.067.255h1.157c-.06-.468-.375-.57-.57-.57Zm3.607 1.676v-1.03c0-.323-.017-.467-.119-.612-.153-.213-.425-.23-.502-.23a.639.639 0 0 0-.51.23c-.034.043-.06.085-.06.102V.034h-.23l-.008 2.706h.23v-.792c0-.314.008-.467.076-.612.051-.102.179-.255.46-.255.076 0 .144.008.213.042.187.085.204.264.212.443V2.74l.239.008Zm1.949-.238c-.102.12-.28.29-.655.29-.068 0-.247-.01-.426-.094-.434-.23-.45-.766-.45-.885 0-.06 0-.213.059-.375a.814.814 0 0 1 .791-.57c.11 0 .375.026.587.264.145.162.239.426.239.647v.06h-1.421c0 .153.017.238.034.306.042.144.17.45.587.442.162 0 .417-.034.587-.383l.213.06a1.573 1.573 0 0 1-.145.238Zm-.68-1.43a.584.584 0 0 0-.52.315.872.872 0 0 0-.068.256h1.157c-.06-.477-.374-.57-.57-.57Zm1.463 1.677L14.72.05h-.23l-.008 2.706h.23Zm2.042-.596c-.034.136-.196.638-.732.638a.576.576 0 0 1-.502-.255c-.017-.025-.025-.042-.051-.094v1.277h-.221v-2.8h.221v.298a.367.367 0 0 1 .068-.119.591.591 0 0 1 .485-.221c.196 0 .306.051.383.093.28.18.383.554.383.868 0 .06 0 .17-.034.315Zm-.247-.663a.526.526 0 0 0-.519-.4.472.472 0 0 0-.238.06c-.136.076-.221.237-.247.382a1.56 1.56 0 0 0-.025.28c-.009.23 0 .494.195.656a.48.48 0 0 0 .315.11c.425 0 .57-.408.57-.765 0-.06-.008-.187-.05-.323Zm2.502-.375V.927h-.417V.562c0-.17-.009-.239.06-.315.025-.026.059-.051.135-.051.111 0 .18.034.222.05v-.22A1.056 1.056 0 0 0 18.78 0c-.255 0-.349.11-.383.23-.034.102-.025.161-.025.357v.349h-.4v.196h.4v1.642h.23V1.132l.408-.009Zm1.803 1.08c-.119.367-.4.605-.79.605a.769.769 0 0 1-.63-.306 1.054 1.054 0 0 1-.188-.63c0-.077 0-.264.085-.468.18-.468.57-.52.758-.52a.73.73 0 0 1 .536.205c.204.196.28.477.289.749-.009.06-.009.204-.06.366Zm-.774-1.122a.586.586 0 0 0-.332.102c-.144.11-.263.306-.263.689 0 .068-.009.434.238.638.06.043.162.11.34.11.264 0 .587-.17.596-.748.017-.604-.29-.791-.579-.791Zm2.136-.162C22.107.91 22.073.91 22.039.91a.793.793 0 0 0-.264.043.471.471 0 0 0-.213.179c-.017.025-.042.06-.05.093V.936h-.23v1.83h.23v-.792c0-.213.008-.34.016-.434.043-.272.213-.434.494-.434.05 0 .093 0 .144.009l.009-.196Zm2.731 1.26c-.034.135-.196.637-.732.637a.576.576 0 0 1-.502-.255c-.017-.025-.025-.042-.05-.093v1.276H23.4v-2.8h.221v.298a.367.367 0 0 1 .068-.119.591.591 0 0 1 .485-.221c.196 0 .315.051.383.094.281.178.392.553.383.867 0 .06 0 .162-.034.315Zm-.247-.673a.526.526 0 0 0-.519-.4.472.472 0 0 0-.238.06c-.136.076-.221.238-.247.383a1.56 1.56 0 0 0-.025.28c-.009.23 0 .494.196.656a.48.48 0 0 0 .314.11c.426 0 .57-.408.57-.766 0-.06-.008-.178-.05-.323ZM26.25.919C26.182.91 26.148.91 26.114.91a.792.792 0 0 0-.263.043.471.471 0 0 0-.213.179.928.928 0 0 0-.051.093V.936h-.23v1.83h.23v-.792c0-.213 0-.34.017-.434.042-.272.213-.434.493-.434.051 0 .094 0 .145.009l.008-.196Zm1.77 1.302c-.119.366-.4.604-.791.604a.769.769 0 0 1-.63-.306 1.063 1.063 0 0 1-.187-.639c0-.076 0-.263.085-.468.179-.468.57-.519.758-.519a.73.73 0 0 1 .536.205c.204.195.28.476.289.748-.009.068-.009.213-.06.375Zm-.782-1.132a.585.585 0 0 0-.332.102c-.145.11-.264.307-.264.69 0 .067-.009.433.238.638.06.042.162.11.34.11.273 0 .596-.17.596-.749.017-.604-.28-.79-.578-.79Zm2.603 1.455c-.06.077-.128.128-.153.153a.67.67 0 0 1-.417.12.655.655 0 0 1-.357-.103.62.62 0 0 1-.222-.264v.324h-.22V.068h.22V1.26a.604.604 0 0 1 .562-.349c.255 0 .4.12.468.188.213.204.29.519.29.8a.95.95 0 0 1-.17.646Zm-.093-.978c-.094-.375-.35-.451-.52-.451a.45.45 0 0 0-.272.076c-.144.094-.255.298-.255.664 0 .17.026.28.043.349.034.11.136.417.502.417.076 0 .28-.009.408-.205.06-.085.128-.263.128-.51a.895.895 0 0 0-.034-.34Zm.927 1.216.008-2.705h-.23v2.705h.222Zm1.94-.246c-.102.119-.28.289-.655.289-.068 0-.247-.009-.426-.094-.434-.23-.45-.765-.45-.885 0-.06 0-.212.059-.374a.814.814 0 0 1 .791-.57c.11 0 .375.025.587.264.145.161.239.425.239.646v.06h-1.421c0 .153.017.238.034.306.042.145.17.451.587.443.161 0 .417-.034.587-.383l.213.06a1.02 1.02 0 0 1-.145.238Zm-.68-1.43a.584.584 0 0 0-.52.315.869.869 0 0 0-.068.255h1.157c-.06-.468-.374-.57-.57-.57Zm3.616 1.676V1.88c0-.468.008-.723-.205-.876a.56.56 0 0 0-.332-.094c-.297 0-.442.162-.502.273a.894.894 0 0 0-.076.187.488.488 0 0 0-.043-.179c-.042-.102-.17-.28-.468-.28-.204 0-.4.085-.493.272-.034.06-.043.119-.051.144V.944h-.23v1.83h.23v-.74c0-.358.008-.51.093-.681a.44.44 0 0 1 .409-.247c.119 0 .23.043.298.162.05.102.06.247.06.485v1.02h.22v-.765c0-.315 0-.46.077-.604.085-.179.23-.298.434-.298a.37.37 0 0 1 .23.068c.144.11.127.29.127.604v.996l.221.008Zm2.986.256c0 .068-.008.314-.179.485-.102.102-.297.204-.63.204-.093 0-.527 0-.706-.35a.655.655 0 0 1-.076-.305l.238-.043c.034.204.085.502.579.502.068 0 .374.009.493-.247.06-.127.06-.272.068-.553V2.442a.285.285 0 0 1-.042.102c-.068.12-.238.29-.57.29a.75.75 0 0 1-.375-.094c-.417-.23-.425-.766-.417-.877 0-.314.102-.663.392-.833a.759.759 0 0 1 .408-.111c.077 0 .273.008.443.145.076.06.119.119.127.153.017.042.026.068.034.076v-.34h.221v1.634c0 .161 0 .306-.008.45Zm-.34-1.72c-.06-.076-.188-.195-.443-.203-.034 0-.119 0-.212.034-.392.153-.383.63-.383.706 0 .272.076.45.136.544a.5.5 0 0 0 .23.188c.093.042.178.042.22.042.06 0 .213 0 .35-.102.195-.145.23-.408.23-.63-.01-.042.008-.374-.128-.578Zm2.076 1.38c-.077-.077-.077-.154-.077-.239a.614.614 0 0 1-.093.162c-.077.085-.264.212-.553.212-.23 0-.358-.076-.434-.161a.49.49 0 0 1-.136-.34c0-.052.008-.18.102-.29.136-.17.365-.221.561-.28.12-.035.23-.069.349-.086l.213-.042V1.54c0-.068.008-.11-.017-.179-.034-.119-.145-.246-.417-.238-.239 0-.358.068-.417.153a.476.476 0 0 0-.068.281l-.247-.042c.008-.034.034-.196.11-.315.086-.128.264-.281.613-.281.188 0 .434.051.562.196.119.144.11.34.11.519v.587c0 .178-.008.298.06.349.06.042.153.042.213.042v.179c-.239 0-.358-.017-.434-.094Zm-.077-.869-.119.034c-.357.094-.664.17-.774.247a.29.29 0 0 0-.12.221c0 .06.026.12.035.128.085.17.289.17.331.17.222 0 .494-.136.588-.34.034-.077.05-.153.05-.324V1.83h.01Zm3.157.97v-.902c0-.468.008-.723-.204-.876a.56.56 0 0 0-.332-.094c-.298 0-.443.162-.502.273a.882.882 0 0 0-.077.187.485.485 0 0 0-.042-.179c-.043-.102-.17-.28-.46-.28-.204 0-.4.085-.493.272-.034.06-.043.119-.051.144V.961h-.23v1.83h.23v-.74c0-.35.008-.51.093-.681a.44.44 0 0 1 .409-.247c.119 0 .238.043.297.162.052.102.06.247.06.485v1.02h.221v-.765c0-.315.009-.46.077-.604.085-.179.23-.298.434-.298a.37.37 0 0 1 .23.068c.144.11.127.29.127.604v.996h.213v.008Zm1.897-.23a.842.842 0 0 1-.153.154.67.67 0 0 1-.417.119c-.076 0-.204 0-.357-.102a.62.62 0 0 1-.145-.136c-.034-.043-.05-.077-.076-.128v.323h-.221V.094h.22v1.19a.604.604 0 0 1 .562-.349c.256.001.4.12.468.188.213.204.29.52.29.8.008.068.008.4-.17.647Zm-.102-.978c-.093-.374-.349-.45-.519-.45a.45.45 0 0 0-.272.076c-.145.093-.255.298-.255.663 0 .17.025.281.042.35.034.11.136.416.502.416.077 0 .281-.008.409-.204.06-.085.119-.264.127-.51a.894.894 0 0 0-.034-.34Zm.928 1.208V.094h-.23l-.008 2.705h.238Zm1.94-.238c-.102.12-.281.29-.655.29-.069 0-.247 0-.426-.094-.434-.23-.45-.766-.45-.885 0-.06 0-.213.059-.374a.814.814 0 0 1 .791-.57c.11 0 .374.025.587.263.145.162.238.426.238.647v.06h-1.42c0 .153.016.238.033.306.043.144.17.45.587.442.162 0 .417-.034.588-.383l.212.06c-.017.034-.068.145-.144.238Zm-.681-1.43a.584.584 0 0 0-.52.315.872.872 0 0 0-.067.256h1.157c-.06-.468-.374-.57-.57-.57Zm2.127-.17a.94.94 0 0 0-.4.035.471.471 0 0 0-.212.178c-.017.026-.035.06-.052.094v-.29h-.23v1.83h.23v-.791c0-.213 0-.34.017-.434.043-.273.213-.434.494-.434.051 0 .094 0 .145.008l.008-.196Zm1.48 1.575a.583.583 0 0 0 .06-.247c0-.051 0-.162-.085-.281-.102-.145-.255-.204-.417-.238l-.196-.043c-.161-.034-.382-.085-.382-.298 0-.025.008-.093.042-.153.026-.042.068-.076.077-.076a.563.563 0 0 1 .298-.068c.187 0 .4.06.442.272l.213-.06a.546.546 0 0 0-.196-.297c-.17-.12-.391-.12-.451-.12-.162 0-.374.034-.502.154a.513.513 0 0 0-.162.357.49.49 0 0 0 .094.29c.128.16.417.186.596.229.195.043.289.085.348.17a.261.261 0 0 1 .052.162.357.357 0 0 1-.128.264c-.051.042-.162.093-.34.093a.507.507 0 0 1-.511-.357l-.221.076c.034.077.068.145.119.213.204.264.502.28.612.28.375 0 .562-.178.639-.322Z"/></svg>