<svg xmlns="http://www.w3.org/2000/svg" width="84" height="24" fill="none"><path fill="#fff" d="M31.403 9.137c.055.208-.014.332-.18.388l-1.595.471c-.194.056-.291 0-.36-.194-.25-.818-.777-1.248-1.761-1.248-1.498 0-2.01.888-2.01 2.08v2.745c0 1.193.499 2.08 2.01 2.08 1.234 0 1.885-.569 1.885-1.83v-.36H27.77c-.138 0-.221-.07-.221-.236v-1.525a.216.216 0 0 1 .194-.236h3.632c.153 0 .236.07.236.222v2.274c0 2.162-1.595 3.799-4.076 3.799-2.94 0-4.312-1.748-4.312-4.132v-2.898c0-2.385 1.372-4.132 4.312-4.132 2.37.014 3.438 1.373 3.868 2.732Zm8.083 2.703v5.324c.014.111-.083.208-.194.222H37.642a.216.216 0 0 1-.236-.194v-.901a2.565 2.565 0 0 1-2.246 1.262c-1.539 0-2.523-.985-2.523-2.51 0-1.483.929-2.357 3.203-2.523.485-.042.984-.042 1.483-.014v-.596c0-.79-.416-1.11-1.123-1.11-.72 0-.929.292-1.123.75-.07.18-.139.207-.291.165l-1.622-.415c-.167-.042-.18-.14-.153-.25.222-1.165 1.331-2.024 3.272-2.024 2.052.014 3.203.998 3.203 2.814Zm-2.163 2.801v-.777c-.43-.013-.873 0-1.303.042-.832.097-1.262.36-1.262.984 0 .569.388.888 1.012.888.721 0 1.29-.388 1.553-1.137Zm8.014-5.601c1.026 0 1.705.61 2.024 1.483.61-.887 1.345-1.483 2.371-1.483 1.428 0 2.246 1.137 2.246 2.828v5.296c0 .139-.125.222-.263.222h-1.692c-.152 0-.263-.083-.263-.222v-4.908c0-.735-.319-1.178-.901-1.178-.61 0-1.054.499-1.262 1.261v4.825c.014.111-.083.208-.194.222h-1.844c-.139 0-.194-.083-.194-.222v-4.908c0-.735-.333-1.178-.901-1.178-.624 0-1.068.527-1.262 1.29v4.81a.202.202 0 0 1-.18.222h-1.83a.202.202 0 0 1-.222-.18V9.442c0-.111.097-.208.208-.208h1.733c.11-.014.208.069.221.194V10.37c.472-.694 1.179-1.331 2.205-1.331Zm15.917.18c.041.194-.014.333-.194.388l-1.567.458c-.194.055-.291-.014-.36-.195-.222-.734-.61-1.33-1.692-1.33-1.345 0-1.775.887-1.775 2.08v2.744c0 1.193.486 2.08 1.775 2.08 1.15 0 1.594-.652 1.775-1.456.041-.18.166-.263.36-.194l1.567.5c.18.055.236.194.194.388-.374 1.594-1.525 2.897-3.91 2.897-2.69 0-4.035-1.747-4.035-4.131V10.55c0-2.385 1.387-4.132 4.035-4.132 2.33 0 3.425 1.234 3.827 2.8Zm7.861 2.62v5.324c.014.111-.083.208-.194.222H67.271a.216.216 0 0 1-.236-.194v-.901a2.565 2.565 0 0 1-2.246 1.262c-1.539 0-2.523-.985-2.523-2.51 0-1.483.929-2.357 3.203-2.523a10.58 10.58 0 0 1 1.483-.014v-.596c0-.79-.416-1.11-1.123-1.11-.72 0-.929.292-1.123.75-.07.18-.138.207-.291.165l-1.622-.415c-.166-.042-.18-.14-.153-.25.222-1.165 1.331-2.024 3.272-2.024 2.052.014 3.203.998 3.203 2.814Zm-2.177 2.801v-.777c-.43-.013-.873 0-1.303.042-.832.097-1.262.36-1.262.984 0 .569.389.888 1.013.888.734 0 1.289-.388 1.552-1.137Zm8.486-5.269v1.58c0 .195-.07.264-.264.264h-.235c-1.179 0-1.872.527-2.108 1.415v4.547a.202.202 0 0 1-.18.222h-1.872c-.11 0-.194-.097-.194-.208V9.428c0-.111.083-.208.18-.208h1.706c.18 0 .222.11.222.236v1.095c.388-.721 1.109-1.428 2.37-1.428.32 0 .375.041.375.25Zm2.897 4.617v.305c0 .86.444 1.456 1.484 1.456 1.012 0 1.303-.388 1.567-.873.138-.222.194-.25.43-.153l1.164.596c.236.125.25.236.153.458-.5 1.137-1.761 1.789-3.314 1.789-2.357 0-3.605-1.4-3.605-3.314v-1.886c0-1.858 1.165-3.314 3.577-3.314 2.302 0 3.425 1.456 3.425 3.273v1.303c0 .222-.07.374-.388.374l-4.493-.014Zm0-1.733v.277h2.843v-.277c0-.79-.444-1.414-1.415-1.414-.97 0-1.428.624-1.428 1.414ZM10.204 0H.306A.308.308 0 0 0 0 .305v14.392C0 19.827 4.16 24 9.303 24h.901c5.13 0 9.29-4.16 9.29-9.303V9.303C19.508 4.16 15.348 0 10.204 0Zm6.323 14.85c0 3.493-2.579 6.141-6.572 6.141-4.742 0-6.96-2.814-6.96-6.669V9.65c0-3.855 2.218-6.67 6.96-6.67 3.84 0 5.574 2.192 6.267 4.382.097.333-.028.527-.291.624l-2.58.763c-.304.097-.47 0-.568-.305-.402-1.317-1.261-2.025-2.828-2.025-2.426 0-3.244 1.428-3.244 3.356v4.436c0 1.928.804 3.356 3.244 3.356 1.996 0 3.05-.93 3.05-2.954v-.568h-2.662c-.208 0-.36-.125-.36-.374v-2.454c0-.236.138-.389.36-.389h5.81c.235 0 .374.125.374.36v3.661Z"/></svg>